<?xml version="1.0" encoding="UTF-8"?>
<svg id="Layer_1" xmlns="http://www.w3.org/2000/svg" xmlns:xlink="http://www.w3.org/1999/xlink" version="1.1" viewBox="0 0 958 735">
  <!-- Generator: Adobe Illustrator 29.6.1, SVG Export Plug-In . SVG Version: 2.1.1 Build 9)  -->
  <defs>
    <style>
      .st0, .st1, .st2, .st3, .st4 {
        fill: none;
      }

      .st5 {
        fill: #5a6ea5;
      }

      .st1 {
        stroke: #f2f2f2;
      }

      .st1, .st3, .st4 {
        stroke-linejoin: bevel;
      }

      .st1, .st4 {
        stroke-linecap: square;
      }

      .st2 {
        stroke: #5a6ea5;
        stroke-linecap: round;
        stroke-linejoin: round;
        stroke-width: 6.7px;
      }

      .st6 {
        fill: #333;
      }

      .st6, .st7 {
        font-family: ArialMT, Arial;
        font-size: 12px;
        isolation: isolate;
      }

      .st3, .st4 {
        stroke: #f5f5f5;
      }

      .st8 {
        clip-path: url(#clippath-17);
      }

      .st9 {
        clip-path: url(#clippath-19);
      }

      .st10 {
        clip-path: url(#clippath-11);
      }

      .st11 {
        clip-path: url(#clippath-16);
      }

      .st12 {
        clip-path: url(#clippath-18);
      }

      .st13 {
        clip-path: url(#clippath-10);
      }

      .st14 {
        clip-path: url(#clippath-15);
      }

      .st15 {
        clip-path: url(#clippath-13);
      }

      .st16 {
        clip-path: url(#clippath-14);
      }

      .st17 {
        clip-path: url(#clippath-12);
      }

      .st18 {
        clip-path: url(#clippath-54);
      }

      .st19 {
        clip-path: url(#clippath-53);
      }

      .st20 {
        clip-path: url(#clippath-31);
      }

      .st21 {
        clip-path: url(#clippath-33);
      }

      .st22 {
        clip-path: url(#clippath-30);
      }

      .st23 {
        clip-path: url(#clippath-38);
      }

      .st24 {
        clip-path: url(#clippath-20);
      }

      .st25 {
        clip-path: url(#clippath-21);
      }

      .st26 {
        clip-path: url(#clippath-22);
      }

      .st27 {
        clip-path: url(#clippath-23);
      }

      .st28 {
        clip-path: url(#clippath-25);
      }

      .st29 {
        clip-path: url(#clippath-41);
      }

      .st30 {
        clip-path: url(#clippath-86);
      }

      .st31 {
        clip-path: url(#clippath-1);
      }

      .st32 {
        clip-path: url(#clippath-3);
      }

      .st33 {
        clip-path: url(#clippath-4);
      }

      .st34 {
        clip-path: url(#clippath-2);
      }

      .st35 {
        clip-path: url(#clippath-7);
      }

      .st36 {
        clip-path: url(#clippath-6);
      }

      .st37 {
        clip-path: url(#clippath-9);
      }

      .st38 {
        clip-path: url(#clippath-5);
      }

      .st39 {
        fill: #fff;
      }

      .st7 {
        fill: #666;
      }
    </style>
    <clipPath id="clippath">
      <rect class="st0" x="101" y="678" width="858" height="57"/>
    </clipPath>
    <clipPath id="clippath-1">
      <rect class="st0" x="101" y="678" width="858" height="57"/>
    </clipPath>
    <clipPath id="clippath-2">
      <rect class="st0" x="101" y="678" width="858" height="57"/>
    </clipPath>
    <clipPath id="clippath-3">
      <rect class="st0" x="101" y="678" width="858" height="57"/>
    </clipPath>
    <clipPath id="clippath-4">
      <rect class="st0" x="101" y="678" width="858" height="57"/>
    </clipPath>
    <clipPath id="clippath-5">
      <rect class="st0" x="101" y="678" width="858" height="57"/>
    </clipPath>
    <clipPath id="clippath-6">
      <rect class="st0" x="101" y="678" width="858" height="57"/>
    </clipPath>
    <clipPath id="clippath-7">
      <rect class="st0" x="101" y="678" width="858" height="57"/>
    </clipPath>
    <clipPath id="clippath-8">
      <rect class="st0" x="-1" y="-1" width="104" height="681"/>
    </clipPath>
    <clipPath id="clippath-9">
      <rect class="st0" x="-1" y="-1" width="104" height="681"/>
    </clipPath>
    <clipPath id="clippath-10">
      <rect class="st0" x="-1" y="-1" width="104" height="681"/>
    </clipPath>
    <clipPath id="clippath-11">
      <rect class="st0" x="-1" y="-1" width="104" height="681"/>
    </clipPath>
    <clipPath id="clippath-12">
      <rect class="st0" x="-1" y="-1" width="104" height="681"/>
    </clipPath>
    <clipPath id="clippath-13">
      <rect class="st0" x="-1" y="-1" width="104" height="681"/>
    </clipPath>
    <clipPath id="clippath-14">
      <rect class="st0" x="-1" y="-1" width="104" height="681"/>
    </clipPath>
    <clipPath id="clippath-15">
      <rect class="st0" x="-1" y="-1" width="104" height="681"/>
    </clipPath>
    <clipPath id="clippath-16">
      <rect class="st0" x="-1" y="-1" width="104" height="681"/>
    </clipPath>
    <clipPath id="clippath-17">
      <rect class="st0" x="-1" y="-1" width="104" height="681"/>
    </clipPath>
    <clipPath id="clippath-18">
      <rect class="st0" x="-1" y="-1" width="104" height="681"/>
    </clipPath>
    <clipPath id="clippath-19">
      <rect class="st0" x="-1" y="-1" width="104" height="681"/>
    </clipPath>
    <clipPath id="clippath-20">
      <rect class="st0" x="-1" y="-1" width="104" height="681"/>
    </clipPath>
    <clipPath id="clippath-21">
      <rect class="st0" x="-1" y="-1" width="104" height="681"/>
    </clipPath>
    <clipPath id="clippath-22">
      <rect class="st0" x="-1" y="-1" width="104" height="681"/>
    </clipPath>
    <clipPath id="clippath-23">
      <rect class="st0" x="-1" y="-1" width="104" height="681"/>
    </clipPath>
    <clipPath id="clippath-24">
      <rect class="st0" x="-1" y="-1" width="104" height="681"/>
    </clipPath>
    <clipPath id="clippath-25">
      <rect class="st0" x="-1" y="-1" width="104" height="681"/>
    </clipPath>
    <clipPath id="clippath-26">
      <rect class="st0" x="-1" y="-1" width="104" height="681"/>
    </clipPath>
    <clipPath id="clippath-27">
      <rect class="st0" x="-1" y="-1" width="104" height="681"/>
    </clipPath>
    <clipPath id="clippath-28">
      <rect class="st0" x="102" width="857" height="680"/>
    </clipPath>
    <clipPath id="clippath-29">
      <rect class="st0" x="102" width="857" height="680"/>
    </clipPath>
    <clipPath id="clippath-30">
      <rect class="st0" x="102" width="857" height="680"/>
    </clipPath>
    <clipPath id="clippath-31">
      <rect class="st0" x="102" width="857" height="680"/>
    </clipPath>
    <clipPath id="clippath-32">
      <rect class="st0" x="102" width="857" height="680"/>
    </clipPath>
    <clipPath id="clippath-33">
      <rect class="st0" x="102" width="857" height="680"/>
    </clipPath>
    <clipPath id="clippath-34">
      <rect class="st0" x="102" width="857" height="680"/>
    </clipPath>
    <clipPath id="clippath-35">
      <rect class="st0" x="102" width="857" height="680"/>
    </clipPath>
    <clipPath id="clippath-36">
      <rect class="st0" x="102" width="857" height="680"/>
    </clipPath>
    <clipPath id="clippath-37">
      <rect class="st0" x="102" width="857" height="680"/>
    </clipPath>
    <clipPath id="clippath-38">
      <rect class="st0" x="102" width="857" height="680"/>
    </clipPath>
    <clipPath id="clippath-39">
      <rect class="st0" x="102" width="857" height="680"/>
    </clipPath>
    <clipPath id="clippath-40">
      <rect class="st0" x="102" width="856" height="679"/>
    </clipPath>
    <clipPath id="clippath-41">
      <rect class="st0" x="102" width="856" height="679"/>
    </clipPath>
    <clipPath id="clippath-42">
      <rect class="st0" x="102" width="857" height="680"/>
    </clipPath>
    <clipPath id="clippath-43">
      <rect class="st0" x="102" width="856" height="679"/>
    </clipPath>
    <clipPath id="clippath-44">
      <rect class="st0" x="102" width="857" height="680"/>
    </clipPath>
    <clipPath id="clippath-45">
      <rect class="st0" x="102" width="856" height="679"/>
    </clipPath>
    <clipPath id="clippath-46">
      <rect class="st0" x="102" width="857" height="680"/>
    </clipPath>
    <clipPath id="clippath-47">
      <rect class="st0" x="102" width="857" height="680"/>
    </clipPath>
    <clipPath id="clippath-48">
      <rect class="st0" x="102" width="856" height="679"/>
    </clipPath>
    <clipPath id="clippath-49">
      <rect class="st0" x="102" width="857" height="680"/>
    </clipPath>
    <clipPath id="clippath-50">
      <rect class="st0" x="102" width="856" height="679"/>
    </clipPath>
    <clipPath id="clippath-51">
      <rect class="st0" x="102" width="857" height="680"/>
    </clipPath>
    <clipPath id="clippath-52">
      <rect class="st0" x="102" width="856" height="679"/>
    </clipPath>
    <clipPath id="clippath-53">
      <rect class="st0" x="102" width="856" height="679"/>
    </clipPath>
    <clipPath id="clippath-54">
      <rect class="st0" x="102" width="856" height="679"/>
    </clipPath>
    <clipPath id="clippath-55">
      <rect class="st0" x="102" width="857" height="680"/>
    </clipPath>
    <clipPath id="clippath-56">
      <rect class="st0" x="102" width="857" height="680"/>
    </clipPath>
    <clipPath id="clippath-57">
      <rect class="st0" x="102" width="856" height="679"/>
    </clipPath>
    <clipPath id="clippath-58">
      <rect class="st0" x="102" width="857" height="680"/>
    </clipPath>
    <clipPath id="clippath-59">
      <rect class="st0" x="102" width="856" height="679"/>
    </clipPath>
    <clipPath id="clippath-60">
      <rect class="st0" x="102" width="857" height="680"/>
    </clipPath>
    <clipPath id="clippath-61">
      <rect class="st0" x="102" width="856" height="679"/>
    </clipPath>
    <clipPath id="clippath-62">
      <rect class="st0" x="102" width="857" height="680"/>
    </clipPath>
    <clipPath id="clippath-63">
      <rect class="st0" x="102" width="857" height="680"/>
    </clipPath>
    <clipPath id="clippath-64">
      <rect class="st0" x="102" width="856" height="679"/>
    </clipPath>
    <clipPath id="clippath-65">
      <rect class="st0" x="102" width="857" height="680"/>
    </clipPath>
    <clipPath id="clippath-66">
      <rect class="st0" x="102" width="856" height="679"/>
    </clipPath>
    <clipPath id="clippath-67">
      <rect class="st0" x="102" width="857" height="680"/>
    </clipPath>
    <clipPath id="clippath-68">
      <rect class="st0" x="102" width="856" height="679"/>
    </clipPath>
    <clipPath id="clippath-69">
      <rect class="st0" x="102" width="857" height="680"/>
    </clipPath>
    <clipPath id="clippath-70">
      <rect class="st0" x="102" width="857" height="680"/>
    </clipPath>
    <clipPath id="clippath-71">
      <rect class="st0" x="102" width="856" height="679"/>
    </clipPath>
    <clipPath id="clippath-72">
      <rect class="st0" x="102" width="857" height="680"/>
    </clipPath>
    <clipPath id="clippath-73">
      <rect class="st0" x="102" width="856" height="679"/>
    </clipPath>
    <clipPath id="clippath-74">
      <rect class="st0" x="102" width="857" height="680"/>
    </clipPath>
    <clipPath id="clippath-75">
      <rect class="st0" x="102" width="856" height="679"/>
    </clipPath>
    <clipPath id="clippath-76">
      <rect class="st0" x="102" width="857" height="680"/>
    </clipPath>
    <clipPath id="clippath-77">
      <rect class="st0" x="102" width="857" height="680"/>
    </clipPath>
    <clipPath id="clippath-78">
      <rect class="st0" x="102" width="856" height="679"/>
    </clipPath>
    <clipPath id="clippath-79">
      <rect class="st0" x="102" width="857" height="680"/>
    </clipPath>
    <clipPath id="clippath-80">
      <rect class="st0" x="102" width="856" height="679"/>
    </clipPath>
    <clipPath id="clippath-81">
      <rect class="st0" x="102" width="857" height="680"/>
    </clipPath>
    <clipPath id="clippath-82">
      <rect class="st0" x="102" width="856" height="679"/>
    </clipPath>
    <clipPath id="clippath-83">
      <rect class="st0" x="102" width="857" height="680"/>
    </clipPath>
    <clipPath id="clippath-84">
      <rect class="st0" x="102" width="857" height="680"/>
    </clipPath>
    <clipPath id="clippath-85">
      <rect class="st0" x="102" width="857" height="680"/>
    </clipPath>
    <clipPath id="clippath-86">
      <rect class="st0" x="102" width="857" height="680"/>
    </clipPath>
    <clipPath id="clippath-87">
      <rect class="st0" x="102" width="857" height="680"/>
    </clipPath>
  </defs>
  <g>
    <rect class="st39" width="958" height="734"/>
    <rect class="st39" width="958" height="734"/>
    <g class="st31">
      <g>
        <line class="st3" x1="143" y1="679" x2="143" y2="684" vector-effect="none"/>
        <line class="st3" x1="401" y1="679" x2="401" y2="684" vector-effect="none"/>
        <line class="st3" x1="658" y1="679" x2="658" y2="684" vector-effect="none"/>
        <line class="st3" x1="916" y1="679" x2="916" y2="684" vector-effect="none"/>
      </g>
    </g>
    <g class="st34">
      <g>
        <line class="st3" x1="122" y1="679" x2="122" y2="681" vector-effect="none"/>
        <line class="st3" x1="165" y1="679" x2="165" y2="681" vector-effect="none"/>
        <line class="st3" x1="185" y1="679" x2="185" y2="681" vector-effect="none"/>
        <line class="st3" x1="207" y1="679" x2="207" y2="681" vector-effect="none"/>
        <line class="st3" x1="228" y1="679" x2="228" y2="681" vector-effect="none"/>
        <line class="st3" x1="250" y1="679" x2="250" y2="681" vector-effect="none"/>
        <line class="st3" x1="271" y1="679" x2="271" y2="681" vector-effect="none"/>
        <line class="st3" x1="293" y1="679" x2="293" y2="681" vector-effect="none"/>
        <line class="st3" x1="315" y1="679" x2="315" y2="681" vector-effect="none"/>
        <line class="st3" x1="336" y1="679" x2="336" y2="681" vector-effect="none"/>
        <line class="st3" x1="358" y1="679" x2="358" y2="681" vector-effect="none"/>
        <line class="st3" x1="379" y1="679" x2="379" y2="681" vector-effect="none"/>
        <line class="st3" x1="423" y1="679" x2="423" y2="681" vector-effect="none"/>
        <line class="st3" x1="442" y1="679" x2="442" y2="681" vector-effect="none"/>
        <line class="st3" x1="464" y1="679" x2="464" y2="681" vector-effect="none"/>
        <line class="st3" x1="485" y1="679" x2="485" y2="681" vector-effect="none"/>
        <line class="st3" x1="507" y1="679" x2="507" y2="681" vector-effect="none"/>
        <line class="st3" x1="528" y1="679" x2="528" y2="681" vector-effect="none"/>
        <line class="st3" x1="550" y1="679" x2="550" y2="681" vector-effect="none"/>
        <line class="st3" x1="572" y1="679" x2="572" y2="681" vector-effect="none"/>
        <line class="st3" x1="593" y1="679" x2="593" y2="681" vector-effect="none"/>
        <line class="st3" x1="615" y1="679" x2="615" y2="681" vector-effect="none"/>
        <line class="st3" x1="636" y1="679" x2="636" y2="681" vector-effect="none"/>
        <line class="st3" x1="680" y1="679" x2="680" y2="681" vector-effect="none"/>
        <line class="st3" x1="700" y1="679" x2="700" y2="681" vector-effect="none"/>
        <line class="st3" x1="722" y1="679" x2="722" y2="681" vector-effect="none"/>
        <line class="st3" x1="743" y1="679" x2="743" y2="681" vector-effect="none"/>
        <line class="st3" x1="765" y1="679" x2="765" y2="681" vector-effect="none"/>
        <line class="st3" x1="786" y1="679" x2="786" y2="681" vector-effect="none"/>
        <line class="st3" x1="808" y1="679" x2="808" y2="681" vector-effect="none"/>
        <line class="st3" x1="830" y1="679" x2="830" y2="681" vector-effect="none"/>
        <line class="st3" x1="851" y1="679" x2="851" y2="681" vector-effect="none"/>
        <line class="st3" x1="873" y1="679" x2="873" y2="681" vector-effect="none"/>
        <line class="st3" x1="894" y1="679" x2="894" y2="681" vector-effect="none"/>
        <line class="st3" x1="937" y1="679" x2="937" y2="681" vector-effect="none"/>
      </g>
    </g>
    <g class="st32">
      <text class="st7" transform="translate(130.7 697)"><tspan x="0" y="0">2021</tspan></text>
    </g>
    <g class="st33">
      <text class="st7" transform="translate(388.2 697)"><tspan x="0" y="0">2022</tspan></text>
    </g>
    <g class="st38">
      <text class="st7" transform="translate(645.2 697)"><tspan x="0" y="0">2023</tspan></text>
    </g>
    <g class="st36">
      <text class="st7" transform="translate(902.7 697)"><tspan x="0" y="0">2024</tspan></text>
    </g>
    <g class="st35">
      <text class="st6" transform="translate(517.2 724)"><tspan x="0" y="0">Year</tspan></text>
    </g>
    <g class="st37">
      <g>
        <line class="st3" x1="97" y1="679" x2="102" y2="679" vector-effect="none"/>
        <line class="st3" x1="97" y1="627" x2="102" y2="627" vector-effect="none"/>
        <line class="st3" x1="97" y1="575" x2="102" y2="575" vector-effect="none"/>
        <line class="st3" x1="97" y1="523" x2="102" y2="523" vector-effect="none"/>
        <line class="st3" x1="97" y1="471" x2="102" y2="471" vector-effect="none"/>
        <line class="st3" x1="97" y1="419" x2="102" y2="419" vector-effect="none"/>
        <line class="st3" x1="97" y1="367" x2="102" y2="367" vector-effect="none"/>
        <line class="st3" x1="97" y1="315" x2="102" y2="315" vector-effect="none"/>
        <line class="st3" x1="97" y1="263" x2="102" y2="263" vector-effect="none"/>
        <line class="st3" x1="97" y1="212" x2="102" y2="212" vector-effect="none"/>
        <line class="st3" x1="97" y1="160" x2="102" y2="160" vector-effect="none"/>
        <line class="st3" x1="97" y1="108" x2="102" y2="108" vector-effect="none"/>
        <line class="st3" x1="97" y1="56" x2="102" y2="56" vector-effect="none"/>
        <line class="st3" x1="97" y1="4" x2="102" y2="4" vector-effect="none"/>
      </g>
    </g>
    <g class="st13">
      <text class="st7" transform="translate(41.6 676)"><tspan x="0" y="0">5,000,000</tspan></text>
    </g>
    <g class="st10">
      <text class="st7" transform="translate(41.6 631)"><tspan x="0" y="0">5,500,000</tspan></text>
    </g>
    <g class="st17">
      <text class="st7" transform="translate(41.6 579)"><tspan x="0" y="0">6,000,000</tspan></text>
    </g>
    <g class="st15">
      <text class="st7" transform="translate(41.6 527)"><tspan x="0" y="0">6,500,000</tspan></text>
    </g>
    <g class="st16">
      <text class="st7" transform="translate(41.6 475)"><tspan x="0" y="0">7,000,000</tspan></text>
    </g>
    <g class="st14">
      <text class="st7" transform="translate(41.6 423)"><tspan x="0" y="0">7,500,000</tspan></text>
    </g>
    <g class="st11">
      <text class="st7" transform="translate(41.6 371)"><tspan x="0" y="0">8,000,000</tspan></text>
    </g>
    <g class="st8">
      <text class="st7" transform="translate(41.6 319)"><tspan x="0" y="0">8,500,000</tspan></text>
    </g>
    <g class="st12">
      <text class="st7" transform="translate(41.6 267)"><tspan x="0" y="0">9,000,000</tspan></text>
    </g>
    <g class="st9">
      <text class="st7" transform="translate(41.6 216)"><tspan x="0" y="0">9,500,000</tspan></text>
    </g>
    <g class="st24">
      <text class="st7" transform="translate(35 164)"><tspan x="0" y="0">10,000,000</tspan></text>
    </g>
    <g class="st25">
      <text class="st7" transform="translate(35 112)"><tspan x="0" y="0">10,500,000</tspan></text>
    </g>
    <g class="st26">
      <text class="st7" transform="translate(35 60)"><tspan x="0" y="0">11,000,000</tspan></text>
    </g>
    <g class="st27">
      <text class="st7" transform="translate(35 11)"><tspan x="0" y="0">11,500,000</tspan></text>
    </g>
    <g class="st28">
      <text class="st6" transform="translate(17.9 398.2) rotate(-90)"><tspan x="0" y="0">Audiobook Downloads</tspan></text>
    </g>
    <g class="st22">
      <rect class="st39" x="102" width="857" height="680"/>
    </g>
    <g class="st20">
      <rect class="st39" x="102" width="857" height="680"/>
    </g>
    <g class="st21">
      <rect class="st39" x="102" width="857" height="680"/>
    </g>
    <g class="st23">
      <rect class="st39" x="102" width="857" height="680"/>
    </g>
    <g class="st29">
      <g>
        <line class="st1" x1="102" y1="679" x2="958" y2="679" vector-effect="none"/>
        <line class="st1" x1="102" y1="627" x2="958" y2="627" vector-effect="none"/>
        <line class="st1" x1="102" y1="575" x2="958" y2="575" vector-effect="none"/>
        <line class="st1" x1="102" y1="523" x2="958" y2="523" vector-effect="none"/>
        <line class="st1" x1="102" y1="471" x2="958" y2="471" vector-effect="none"/>
        <line class="st1" x1="102" y1="419" x2="958" y2="419" vector-effect="none"/>
        <line class="st1" x1="102" y1="367" x2="958" y2="367" vector-effect="none"/>
        <line class="st1" x1="102" y1="315" x2="958" y2="315" vector-effect="none"/>
        <line class="st1" x1="102" y1="263" x2="958" y2="263" vector-effect="none"/>
        <line class="st1" x1="102" y1="212" x2="958" y2="212" vector-effect="none"/>
        <line class="st1" x1="102" y1="160" x2="958" y2="160" vector-effect="none"/>
        <line class="st1" x1="102" y1="108" x2="958" y2="108" vector-effect="none"/>
        <line class="st1" x1="102" y1="56" x2="958" y2="56" vector-effect="none"/>
        <line class="st1" x1="102" y1="4" x2="958" y2="4" vector-effect="none"/>
      </g>
    </g>
    <g class="st19">
      <polyline class="st2" points="144.5 396.6 401.8 372.9 659.2 212.9 916.5 63.3" vector-effect="none"/>
    </g>
    <g class="st18">
      <path class="st1" d="M102,0" vector-effect="none"/>
    </g>
    <g class="st30">
      <g>
        <line class="st4" x1="102" y1="679" x2="958" y2="679" vector-effect="none"/>
        <line class="st4" x1="102" x2="102" y2="679" vector-effect="none"/>
      </g>
    </g>
  </g>
  <g>
    <circle class="st5" cx="150.8" cy="396.9" r="19.7"/>
    <g id="nOlXaF.tif">
      <g>
        <path class="st39" d="M151.2,382.6c.6.2,1.4.1,2,.3,5.7,1,10.3,6.5,10.3,12.3.4.4.9.5,1.3.9s.8,1.3.9,2c.1,1.5.2,5.8,0,7.2s-1.5,2.6-2.8,2.6h-2.6v-12.6c-.7-12.4-18.1-12.3-19-.2v12.9h-2.6c0,0-.8-.2-.9-.3-1-.4-1.6-1.3-2-2.3v-7.6c.4-1.2,1-2,2.2-2.5.2-6.6,5.4-12.4,12.1-12.6h.3c0-.1.9-.1.9-.1Z"/>
        <path class="st39" d="M142.5,407.5c-.2-.2-.3-.6-.3-.8-.3-3.3.2-7,0-10.3.1-1.3,2-1.5,2.2.2.3,3.1-.3,6.9,0,10.1,0,1-1.3,1.6-2,.8Z"/>
        <path class="st39" d="M158.9,407.5c-.8.8-1.8.1-2-1-.3-3.2.2-6.9,0-10.1.2-1.5,2.1-1.4,2.2-.1-.2,3.3.3,7.1,0,10.3s0,.6-.3.8Z"/>
      </g>
    </g>
  </g>
  <g>
    <circle class="st5" cx="401.2" cy="371" r="19.7"/>
    <g id="nOlXaF.tif1" data-name="nOlXaF.tif">
      <g>
        <path class="st39" d="M401.6,356.7c.6.2,1.4.1,2,.3,5.7,1,10.3,6.5,10.3,12.3.4.4.9.5,1.3.9s.8,1.3.9,2c.1,1.5.2,5.8,0,7.2s-1.5,2.6-2.8,2.6h-2.6v-12.6c-.7-12.4-18.1-12.3-19-.2v12.9h-2.6c0,0-.8-.2-.9-.3-1-.4-1.6-1.3-2-2.3v-7.6c.4-1.2,1-2,2.2-2.5.2-6.6,5.4-12.4,12.1-12.6h.3c0-.1.9-.1.9-.1Z"/>
        <path class="st39" d="M392.9,381.6c-.2-.2-.3-.6-.3-.8-.3-3.3.2-7,0-10.3.1-1.3,2-1.5,2.2.2.3,3.1-.3,6.9,0,10.1,0,1-1.3,1.6-2,.8Z"/>
        <path class="st39" d="M409.3,381.6c-.8.8-1.8.1-2-1-.3-3.2.2-6.9,0-10.1.2-1.5,2.1-1.4,2.2-.1-.2,3.3.3,7.1,0,10.3s0,.6-.3.8Z"/>
      </g>
    </g>
  </g>
  <g>
    <circle class="st5" cx="660.5" cy="211.8" r="19.7"/>
    <g id="nOlXaF.tif2" data-name="nOlXaF.tif">
      <g>
        <path class="st39" d="M660.9,197.5c.6.2,1.4.1,2,.3,5.7,1,10.3,6.5,10.3,12.3.4.4.9.5,1.3.9s.8,1.3.9,2c.1,1.5.2,5.8,0,7.2s-1.5,2.6-2.8,2.6h-2.6v-12.6c-.7-12.4-18.1-12.3-19-.2v12.9h-2.6c0,0-.8-.2-.9-.3-1-.4-1.6-1.3-2-2.3v-7.6c.4-1.2,1-2,2.2-2.5.2-6.6,5.4-12.4,12.1-12.6h.3c0-.1.9-.1.9-.1Z"/>
        <path class="st39" d="M652.3,222.5c-.2-.2-.3-.6-.3-.8-.3-3.3.2-7,0-10.3.1-1.3,2-1.5,2.2.2.3,3.1-.3,6.9,0,10.1,0,1-1.3,1.6-2,.8Z"/>
        <path class="st39" d="M668.7,222.5c-.8.8-1.8.1-2-1-.3-3.2.2-6.9,0-10.1.2-1.5,2.1-1.4,2.2-.1-.2,3.3.3,7.1,0,10.3s0,.6-.3.8Z"/>
      </g>
    </g>
  </g>
  <g>
    <circle class="st5" cx="914" cy="62.2" r="19.7"/>
    <g id="nOlXaF.tif3" data-name="nOlXaF.tif">
      <g>
        <path class="st39" d="M914.4,47.9c.6.2,1.4.1,2,.3,5.7,1,10.3,6.5,10.3,12.3.4.4.9.5,1.3.9s.8,1.3.9,2c.1,1.5.2,5.8,0,7.2s-1.5,2.6-2.8,2.6h-2.6v-12.6c-.7-12.4-18.1-12.3-19-.2v12.9h-2.6c0,0-.8-.2-.9-.3-1-.4-1.6-1.3-2-2.3v-7.6c.4-1.2,1-2,2.2-2.5.2-6.6,5.4-12.4,12.1-12.6h.3c0-.1.9-.1.9-.1Z"/>
        <path class="st39" d="M905.8,72.9c-.2-.2-.3-.6-.3-.8-.3-3.3.2-7,0-10.3.1-1.3,2-1.5,2.2.2.3,3.1-.3,6.9,0,10.1,0,1-1.3,1.6-2,.8Z"/>
        <path class="st39" d="M922.1,72.9c-.8.8-1.8.1-2-1-.3-3.2.2-6.9,0-10.1.2-1.5,2.1-1.4,2.2-.1-.2,3.3.3,7.1,0,10.3s0,.6-.3.8Z"/>
      </g>
    </g>
  </g>
</svg>