<?xml version="1.0" encoding="UTF-8"?>
<svg id="Layer_1" xmlns="http://www.w3.org/2000/svg" xmlns:xlink="http://www.w3.org/1999/xlink" version="1.1" viewBox="0 0 838.4995 468">
  <!-- Generator: Adobe Illustrator 29.6.1, SVG Export Plug-In . SVG Version: 2.1.1 Build 9)  -->
  <defs>
    <clipPath id="clippath">
      <rect x="-.2504" y="-.2504" width="838.0003" height="467.7211" fill="none"/>
    </clipPath>
    <clipPath id="clippath-1">
      <rect x="37.9768" y="-1" width="800.5227" height="16.4902" fill="none"/>
    </clipPath>
    <clipPath id="clippath-2">
      <rect x="37.9768" y="-1" width="800.5227" height="16.4902" fill="none"/>
    </clipPath>
    <clipPath id="clippath-3">
      <rect x="37.9768" y="436.739" width="800.5227" height="31.4812" fill="none"/>
    </clipPath>
    <clipPath id="clippath-4">
      <rect x="37.9768" y="436.739" width="800.5227" height="31.4812" fill="none"/>
    </clipPath>
    <clipPath id="clippath-5">
      <rect x="37.9768" y="436.739" width="800.5227" height="31.4812" fill="none"/>
    </clipPath>
    <clipPath id="clippath-6">
      <rect x="37.9768" y="436.739" width="800.5227" height="31.4812" fill="none"/>
    </clipPath>
    <clipPath id="clippath-7">
      <rect x="37.9768" y="436.739" width="800.5227" height="31.4812" fill="none"/>
    </clipPath>
    <clipPath id="clippath-8">
      <rect x="-1" y="13.9911" width="40.4759" height="424.247" fill="none"/>
    </clipPath>
    <clipPath id="clippath-9">
      <rect x="-1" y="13.9911" width="40.4759" height="424.247" fill="none"/>
    </clipPath>
    <clipPath id="clippath-10">
      <rect x="-1" y="13.9911" width="40.4759" height="424.247" fill="none"/>
    </clipPath>
    <clipPath id="clippath-11">
      <rect x="-1" y="13.9911" width="40.4759" height="424.247" fill="none"/>
    </clipPath>
    <clipPath id="clippath-12">
      <rect x="-1" y="13.9911" width="40.4759" height="424.247" fill="none"/>
    </clipPath>
    <clipPath id="clippath-13">
      <rect x="-1" y="13.9911" width="40.4759" height="424.247" fill="none"/>
    </clipPath>
    <clipPath id="clippath-14">
      <rect x="-1" y="13.9911" width="40.4759" height="424.247" fill="none"/>
    </clipPath>
    <clipPath id="clippath-15">
      <rect x="-1" y="13.9911" width="40.4759" height="424.247" fill="none"/>
    </clipPath>
    <clipPath id="clippath-16">
      <rect x="-1" y="13.9911" width="40.4759" height="424.247" fill="none"/>
    </clipPath>
    <clipPath id="clippath-17">
      <rect x="-1" y="13.9911" width="40.4759" height="424.247" fill="none"/>
    </clipPath>
    <clipPath id="clippath-18">
      <rect x="-1" y="13.9911" width="40.4759" height="424.247" fill="none"/>
    </clipPath>
    <clipPath id="clippath-19">
      <rect x="-1" y="13.9911" width="40.4759" height="424.247" fill="none"/>
    </clipPath>
    <clipPath id="clippath-20">
      <rect x="-1" y="13.9911" width="40.4759" height="424.247" fill="none"/>
    </clipPath>
    <clipPath id="clippath-21">
      <rect x="-1" y="13.9911" width="40.4759" height="424.247" fill="none"/>
    </clipPath>
    <clipPath id="clippath-22">
      <rect x="-1" y="13.9911" width="40.4759" height="424.247" fill="none"/>
    </clipPath>
    <clipPath id="clippath-23">
      <rect x="-1" y="13.9911" width="40.4759" height="424.247" fill="none"/>
    </clipPath>
    <clipPath id="clippath-24">
      <rect x="38.7263" y="14.7406" width="799.7731" height="423.4975" fill="none"/>
    </clipPath>
    <clipPath id="clippath-25">
      <rect x="38.7263" y="14.7406" width="799.7731" height="423.4975" fill="none"/>
    </clipPath>
    <clipPath id="clippath-26">
      <rect x="38.7263" y="14.7406" width="799.7731" height="423.4975" fill="none"/>
    </clipPath>
    <clipPath id="clippath-27">
      <rect x="38.7263" y="14.7406" width="799.7731" height="423.4975" fill="none"/>
    </clipPath>
    <clipPath id="clippath-28">
      <rect x="38.7263" y="14.7406" width="799.7731" height="423.4975" fill="none"/>
    </clipPath>
    <clipPath id="clippath-29">
      <rect x="38.7263" y="14.7406" width="799.7731" height="423.4975" fill="none"/>
    </clipPath>
    <clipPath id="clippath-30">
      <rect x="38.7263" y="14.7406" width="799.7731" height="423.4975" fill="none"/>
    </clipPath>
    <clipPath id="clippath-31">
      <rect x="38.7263" y="14.7406" width="799.7731" height="423.4975" fill="none"/>
    </clipPath>
    <clipPath id="clippath-32">
      <rect x="38.7263" y="14.7406" width="799.7731" height="423.4975" fill="none"/>
    </clipPath>
    <clipPath id="clippath-33">
      <rect x="38.7263" y="14.7406" width="799.7731" height="423.4975" fill="none"/>
    </clipPath>
    <clipPath id="clippath-34">
      <rect x="38.7263" y="14.7406" width="799.7731" height="423.4975" fill="none"/>
    </clipPath>
    <clipPath id="clippath-35">
      <rect x="38.7263" y="14.7406" width="799.7731" height="423.4975" fill="none"/>
    </clipPath>
    <clipPath id="clippath-36">
      <rect x="38.7263" y="14.7406" width="799.0236" height="422.7479" fill="none"/>
    </clipPath>
    <clipPath id="clippath-37">
      <rect x="38.7263" y="14.7406" width="799.0236" height="422.7479" fill="none"/>
    </clipPath>
    <clipPath id="clippath-38">
      <rect x="38.7263" y="14.7406" width="799.7731" height="423.4975" fill="none"/>
    </clipPath>
    <clipPath id="clippath-39">
      <rect x="38.7263" y="14.7406" width="799.0236" height="422.7479" fill="none"/>
    </clipPath>
    <clipPath id="clippath-40">
      <rect x="38.7263" y="14.7406" width="799.0236" height="422.7479" fill="none"/>
    </clipPath>
    <clipPath id="clippath-41">
      <rect x="38.7263" y="14.7406" width="799.7731" height="423.4975" fill="none"/>
    </clipPath>
    <clipPath id="clippath-42">
      <rect x="38.7263" y="14.7406" width="799.0236" height="422.7479" fill="none"/>
    </clipPath>
    <clipPath id="clippath-43">
      <rect x="38.7263" y="14.7406" width="799.7731" height="423.4975" fill="none"/>
    </clipPath>
    <clipPath id="clippath-44">
      <rect x="38.7263" y="14.7406" width="799.7731" height="423.4975" fill="none"/>
    </clipPath>
    <clipPath id="clippath-45">
      <rect x="38.7263" y="14.7406" width="799.0236" height="422.7479" fill="none"/>
    </clipPath>
    <clipPath id="clippath-46">
      <rect x="38.7263" y="14.7406" width="799.7731" height="423.4975" fill="none"/>
    </clipPath>
    <clipPath id="clippath-47">
      <rect x="38.7263" y="14.7406" width="799.0236" height="422.7479" fill="none"/>
    </clipPath>
    <clipPath id="clippath-48">
      <rect x="38.7263" y="14.7406" width="799.7731" height="423.4975" fill="none"/>
    </clipPath>
    <clipPath id="clippath-49">
      <rect x="38.7263" y="14.7406" width="799.0236" height="422.7479" fill="none"/>
    </clipPath>
    <clipPath id="clippath-50">
      <rect x="38.7263" y="14.7406" width="799.0236" height="422.7479" fill="none"/>
    </clipPath>
    <clipPath id="clippath-51">
      <rect x="38.7263" y="14.7406" width="799.0236" height="422.7479" fill="none"/>
    </clipPath>
    <clipPath id="clippath-52">
      <rect x="38.7263" y="14.7406" width="799.7731" height="423.4975" fill="none"/>
    </clipPath>
    <clipPath id="clippath-53">
      <rect x="38.7263" y="14.7406" width="799.7731" height="423.4975" fill="none"/>
    </clipPath>
    <clipPath id="clippath-54">
      <rect x="38.7263" y="14.7406" width="799.0236" height="422.7479" fill="none"/>
    </clipPath>
    <clipPath id="clippath-55">
      <rect x="38.7263" y="14.7406" width="799.7731" height="423.4975" fill="none"/>
    </clipPath>
    <clipPath id="clippath-56">
      <rect x="38.7263" y="14.7406" width="799.0236" height="422.7479" fill="none"/>
    </clipPath>
    <clipPath id="clippath-57">
      <rect x="38.7263" y="14.7406" width="799.7731" height="423.4975" fill="none"/>
    </clipPath>
    <clipPath id="clippath-58">
      <rect x="38.7263" y="14.7406" width="799.0236" height="422.7479" fill="none"/>
    </clipPath>
    <clipPath id="clippath-59">
      <rect x="38.7263" y="14.7406" width="799.7731" height="423.4975" fill="none"/>
    </clipPath>
    <clipPath id="clippath-60">
      <rect x="38.7263" y="14.7406" width="799.7731" height="423.4975" fill="none"/>
    </clipPath>
    <clipPath id="clippath-61">
      <rect x="38.7263" y="14.7406" width="799.0236" height="422.7479" fill="none"/>
    </clipPath>
    <clipPath id="clippath-62">
      <rect x="38.7263" y="14.7406" width="799.7731" height="423.4975" fill="none"/>
    </clipPath>
    <clipPath id="clippath-63">
      <rect x="38.7263" y="14.7406" width="799.0236" height="422.7479" fill="none"/>
    </clipPath>
    <clipPath id="clippath-64">
      <rect x="38.7263" y="14.7406" width="799.7731" height="423.4975" fill="none"/>
    </clipPath>
    <clipPath id="clippath-65">
      <rect x="38.7263" y="14.7406" width="799.0236" height="422.7479" fill="none"/>
    </clipPath>
    <clipPath id="clippath-66">
      <rect x="38.7263" y="14.7406" width="799.7731" height="423.4975" fill="none"/>
    </clipPath>
    <clipPath id="clippath-67">
      <rect x="38.7263" y="14.7406" width="799.7731" height="423.4975" fill="none"/>
    </clipPath>
    <clipPath id="clippath-68">
      <rect x="38.7263" y="14.7406" width="799.0236" height="422.7479" fill="none"/>
    </clipPath>
    <clipPath id="clippath-69">
      <rect x="38.7263" y="14.7406" width="799.7731" height="423.4975" fill="none"/>
    </clipPath>
    <clipPath id="clippath-70">
      <rect x="38.7263" y="14.7406" width="799.0236" height="422.7479" fill="none"/>
    </clipPath>
    <clipPath id="clippath-71">
      <rect x="38.7263" y="14.7406" width="799.7731" height="423.4975" fill="none"/>
    </clipPath>
    <clipPath id="clippath-72">
      <rect x="38.7263" y="14.7406" width="799.0236" height="422.7479" fill="none"/>
    </clipPath>
    <clipPath id="clippath-73">
      <rect x="38.7263" y="14.7406" width="799.7731" height="423.4975" fill="none"/>
    </clipPath>
    <clipPath id="clippath-74">
      <rect x="38.7263" y="14.7406" width="799.7731" height="423.4975" fill="none"/>
    </clipPath>
    <clipPath id="clippath-75">
      <rect x="38.7263" y="14.7406" width="799.0236" height="422.7479" fill="none"/>
    </clipPath>
    <clipPath id="clippath-76">
      <rect x="38.7263" y="14.7406" width="799.7731" height="423.4975" fill="none"/>
    </clipPath>
    <clipPath id="clippath-77">
      <rect x="38.7263" y="14.7406" width="799.0236" height="422.7479" fill="none"/>
    </clipPath>
    <clipPath id="clippath-78">
      <rect x="38.7263" y="14.7406" width="799.7731" height="423.4975" fill="none"/>
    </clipPath>
    <clipPath id="clippath-79">
      <rect x="38.7263" y="14.7406" width="799.0236" height="422.7479" fill="none"/>
    </clipPath>
    <clipPath id="clippath-80">
      <rect x="38.7263" y="14.7406" width="799.7731" height="423.4975" fill="none"/>
    </clipPath>
    <clipPath id="clippath-81">
      <rect x="38.7263" y="14.7406" width="799.7731" height="423.4975" fill="none"/>
    </clipPath>
    <clipPath id="clippath-82">
      <rect x="38.7263" y="14.7406" width="799.7731" height="423.4975" fill="none"/>
    </clipPath>
    <clipPath id="clippath-83">
      <rect x="38.7263" y="14.7406" width="799.7731" height="423.4975" fill="none"/>
    </clipPath>
    <clipPath id="clippath-84">
      <rect x="38.7263" y="14.7406" width="799.7731" height="423.4975" fill="none"/>
    </clipPath>
  </defs>
  <rect x="-.2504" y="-.2504" width="838.0003" height="467.7211" fill="#fff"/>
  <rect x="-.2504" y="-.2504" width="838.0003" height="467.7211" fill="#fff"/>
  <g clip-path="url(#clippath-2)">
    <text transform="translate(408.022 10.2432)" fill="#333" font-family="ArialMT, Arial" font-size="8.9946" isolation="isolate"><tspan x="0" y="0">Format Groups</tspan></text>
  </g>
  <g clip-path="url(#clippath-4)">
    <g>
      <line x1="38.7263" y1="437.4886" x2="38.7263" y2="441.2363" vector-effect="none" fill="none" stroke="#f5f5f5" stroke-linejoin="bevel" stroke-width=".7496"/>
      <line x1="438.2381" y1="437.4886" x2="438.2381" y2="441.2363" vector-effect="none" fill="none" stroke="#f5f5f5" stroke-linejoin="bevel" stroke-width=".7496"/>
      <line x1="837.7499" y1="437.4886" x2="837.7499" y2="441.2363" vector-effect="none" fill="none" stroke="#f5f5f5" stroke-linejoin="bevel" stroke-width=".7496"/>
    </g>
  </g>
  <g clip-path="url(#clippath-6)">
    <text transform="translate(216.499 448.7324)" fill="#666" font-family="ArialMT, Arial" font-size="8.9946" isolation="isolate"><tspan x="0" y="0">Audio Only</tspan></text>
  </g>
  <g clip-path="url(#clippath-7)">
    <text transform="translate(610.7637 448.7324)" fill="#666" font-family="ArialMT, Arial" font-size="8.9946" isolation="isolate"><tspan x="0" y="0">Physical Only</tspan></text>
  </g>
  <g clip-path="url(#clippath-9)">
    <g>
      <line x1="34.9785" y1="437.4886" x2="38.7263" y2="437.4886" vector-effect="none" fill="none" stroke="#f5f5f5" stroke-linejoin="bevel" stroke-width=".7496"/>
      <line x1="34.9785" y1="394.0145" x2="38.7263" y2="394.0145" vector-effect="none" fill="none" stroke="#f5f5f5" stroke-linejoin="bevel" stroke-width=".7496"/>
      <line x1="34.9785" y1="350.5404" x2="38.7263" y2="350.5404" vector-effect="none" fill="none" stroke="#f5f5f5" stroke-linejoin="bevel" stroke-width=".7496"/>
      <line x1="34.9785" y1="307.0663" x2="38.7263" y2="307.0663" vector-effect="none" fill="none" stroke="#f5f5f5" stroke-linejoin="bevel" stroke-width=".7496"/>
      <line x1="34.9785" y1="263.5922" x2="38.7263" y2="263.5922" vector-effect="none" fill="none" stroke="#f5f5f5" stroke-linejoin="bevel" stroke-width=".7496"/>
      <line x1="34.9785" y1="220.1182" x2="38.7263" y2="220.1182" vector-effect="none" fill="none" stroke="#f5f5f5" stroke-linejoin="bevel" stroke-width=".7496"/>
      <line x1="34.9785" y1="176.6441" x2="38.7263" y2="176.6441" vector-effect="none" fill="none" stroke="#f5f5f5" stroke-linejoin="bevel" stroke-width=".7496"/>
      <line x1="34.9785" y1="133.17" x2="38.7263" y2="133.17" vector-effect="none" fill="none" stroke="#f5f5f5" stroke-linejoin="bevel" stroke-width=".7496"/>
      <line x1="34.9785" y1="89.6959" x2="38.7263" y2="89.6959" vector-effect="none" fill="none" stroke="#f5f5f5" stroke-linejoin="bevel" stroke-width=".7496"/>
      <line x1="34.9785" y1="46.2218" x2="38.7263" y2="46.2218" vector-effect="none" fill="none" stroke="#f5f5f5" stroke-linejoin="bevel" stroke-width=".7496"/>
    </g>
  </g>
  <g clip-path="url(#clippath-10)">
    <text transform="translate(28.4785 435.2402)" fill="#666" font-family="ArialMT, Arial" font-size="8.9946" isolation="isolate"><tspan x="0" y="0">0</tspan></text>
  </g>
  <g clip-path="url(#clippath-11)">
    <text transform="translate(28.4785 397.0127)" fill="#666" font-family="ArialMT, Arial" font-size="8.9946" isolation="isolate"><tspan x="0" y="0">2</tspan></text>
  </g>
  <g clip-path="url(#clippath-12)">
    <text transform="translate(28.4785 353.5391)" fill="#666" font-family="ArialMT, Arial" font-size="8.9946" isolation="isolate"><tspan x="0" y="0">4</tspan></text>
  </g>
  <g clip-path="url(#clippath-13)">
    <text transform="translate(28.4785 310.0645)" fill="#666" font-family="ArialMT, Arial" font-size="8.9946" isolation="isolate"><tspan x="0" y="0">6</tspan></text>
  </g>
  <g clip-path="url(#clippath-14)">
    <text transform="translate(28.4785 266.5908)" fill="#666" font-family="ArialMT, Arial" font-size="8.9946" isolation="isolate"><tspan x="0" y="0">8</tspan></text>
  </g>
  <g clip-path="url(#clippath-15)">
    <text transform="translate(23.4775 223.1162)" fill="#666" font-family="ArialMT, Arial" font-size="8.9946" isolation="isolate"><tspan x="0" y="0">10</tspan></text>
  </g>
  <g clip-path="url(#clippath-16)">
    <text transform="translate(23.4775 179.6426)" fill="#666" font-family="ArialMT, Arial" font-size="8.9946" isolation="isolate"><tspan x="0" y="0">12</tspan></text>
  </g>
  <g clip-path="url(#clippath-17)">
    <text transform="translate(23.4775 136.1685)" fill="#666" font-family="ArialMT, Arial" font-size="8.9946" isolation="isolate"><tspan x="0" y="0">14</tspan></text>
  </g>
  <g clip-path="url(#clippath-18)">
    <text transform="translate(23.4775 92.6943)" fill="#666" font-family="ArialMT, Arial" font-size="8.9946" isolation="isolate"><tspan x="0" y="0">16</tspan></text>
  </g>
  <g clip-path="url(#clippath-19)">
    <text transform="translate(23.4775 49.2202)" fill="#666" font-family="ArialMT, Arial" font-size="8.9946" isolation="isolate"><tspan x="0" y="0">18</tspan></text>
  </g>
  <g clip-path="url(#clippath-21)">
    <text transform="translate(13.1362 271.334) rotate(-90)" fill="#333" font-family="ArialMT, Arial" font-size="8.9946" isolation="isolate"><tspan x="0" y="0">Avg. Total Books Read</tspan></text>
  </g>
  <g clip-path="url(#clippath-26)">
    <rect x="38.7263" y="14.7406" width="799.7731" height="423.4975" fill="#fff"/>
  </g>
  <g clip-path="url(#clippath-27)">
    <rect x="38.7263" y="14.7406" width="799.7731" height="423.4975" fill="#fff"/>
  </g>
  <g clip-path="url(#clippath-29)">
    <rect x="38.7263" y="14.7406" width="799.7731" height="423.4975" fill="#fff"/>
  </g>
  <g clip-path="url(#clippath-34)">
    <rect x="38.7263" y="14.7406" width="799.7731" height="423.4975" fill="#fff"/>
  </g>
  <g clip-path="url(#clippath-37)">
    <g>
      <line x1="38.7263" y1="394.0145" x2="837.7499" y2="394.0145" vector-effect="none" fill="none" stroke="#f2f2f2" stroke-linecap="square" stroke-linejoin="bevel" stroke-width=".7496"/>
      <line x1="38.7263" y1="350.5404" x2="837.7499" y2="350.5404" vector-effect="none" fill="none" stroke="#f2f2f2" stroke-linecap="square" stroke-linejoin="bevel" stroke-width=".7496"/>
      <line x1="38.7263" y1="307.0663" x2="837.7499" y2="307.0663" vector-effect="none" fill="none" stroke="#f2f2f2" stroke-linecap="square" stroke-linejoin="bevel" stroke-width=".7496"/>
      <line x1="38.7263" y1="263.5922" x2="837.7499" y2="263.5922" vector-effect="none" fill="none" stroke="#f2f2f2" stroke-linecap="square" stroke-linejoin="bevel" stroke-width=".7496"/>
      <line x1="38.7263" y1="220.1182" x2="837.7499" y2="220.1182" vector-effect="none" fill="none" stroke="#f2f2f2" stroke-linecap="square" stroke-linejoin="bevel" stroke-width=".7496"/>
      <line x1="38.7263" y1="176.6441" x2="837.7499" y2="176.6441" vector-effect="none" fill="none" stroke="#f2f2f2" stroke-linecap="square" stroke-linejoin="bevel" stroke-width=".7496"/>
      <line x1="38.7263" y1="133.17" x2="837.7499" y2="133.17" vector-effect="none" fill="none" stroke="#f2f2f2" stroke-linecap="square" stroke-linejoin="bevel" stroke-width=".7496"/>
      <line x1="38.7263" y1="89.6959" x2="837.7499" y2="89.6959" vector-effect="none" fill="none" stroke="#f2f2f2" stroke-linecap="square" stroke-linejoin="bevel" stroke-width=".7496"/>
      <line x1="38.7263" y1="46.2218" x2="837.7499" y2="46.2218" vector-effect="none" fill="none" stroke="#f2f2f2" stroke-linecap="square" stroke-linejoin="bevel" stroke-width=".7496"/>
    </g>
  </g>
  <g clip-path="url(#clippath-40)">
    <line x1="38.7263" y1="437.4886" x2="837.7499" y2="437.4886" vector-effect="none" fill="none" stroke="#cbcbcb" stroke-dasharray=".7496 1.4991" stroke-linecap="square" stroke-linejoin="bevel" stroke-width=".7496"/>
  </g>
  <g clip-path="url(#clippath-50)">
    <rect x="540.1773" y="34.9785" width="195.6334" height="402.51" fill="#bcbec0"/>
  </g>
  <g clip-path="url(#clippath-51)">
    <rect x="140.6655" y="149.6602" width="195.6334" height="287.8284" fill="#5a6ea5"/>
  </g>
  <g clip-path="url(#clippath-83)">
    <g>
      <line x1="38.7263" y1="437.4886" x2="837.7499" y2="437.4886" vector-effect="none" fill="none" stroke="#f5f5f5" stroke-linecap="square" stroke-linejoin="bevel" stroke-width=".7496"/>
      <line x1="38.7263" y1="14.7406" x2="38.7263" y2="437.4886" vector-effect="none" fill="none" stroke="#f5f5f5" stroke-linecap="square" stroke-linejoin="bevel" stroke-width=".7496"/>
    </g>
  </g>
</svg>