<?xml version="1.0" encoding="UTF-8"?>
<svg id="Layer_1" xmlns="http://www.w3.org/2000/svg" xmlns:xlink="http://www.w3.org/1999/xlink" version="1.1" viewBox="0 0 718.5005 550.4995">
  <!-- Generator: Adobe Illustrator 29.6.1, SVG Export Plug-In . SVG Version: 2.1.1 Build 9)  -->
  <defs>
    <clipPath id="clippath">
      <rect x="75.5266" y="507.6771" width="566.4472" height="42.7649" fill="none"/>
    </clipPath>
    <clipPath id="clippath-1">
      <rect x="75.5266" y="507.6771" width="566.4472" height="42.7649" fill="none"/>
    </clipPath>
    <clipPath id="clippath-2">
      <rect x="75.5266" y="507.6771" width="566.4472" height="42.7649" fill="none"/>
    </clipPath>
    <clipPath id="clippath-3">
      <rect x="75.5266" y="507.6771" width="566.4472" height="42.7649" fill="none"/>
    </clipPath>
    <clipPath id="clippath-4">
      <rect x="75.5266" y="507.6771" width="566.4472" height="42.7649" fill="none"/>
    </clipPath>
    <clipPath id="clippath-5">
      <rect x="75.5266" y="507.6771" width="566.4472" height="42.7649" fill="none"/>
    </clipPath>
    <clipPath id="clippath-6">
      <rect x="75.5266" y="507.6771" width="566.4472" height="42.7649" fill="none"/>
    </clipPath>
    <clipPath id="clippath-7">
      <rect x="-1" y="-1" width="78.0272" height="510.1776" fill="none"/>
    </clipPath>
    <clipPath id="clippath-8">
      <rect x="-1" y="-1" width="78.0272" height="510.1776" fill="none"/>
    </clipPath>
    <clipPath id="clippath-9">
      <rect x="-1" y="-1" width="78.0272" height="510.1776" fill="none"/>
    </clipPath>
    <clipPath id="clippath-10">
      <rect x="-1" y="-1" width="78.0272" height="510.1776" fill="none"/>
    </clipPath>
    <clipPath id="clippath-11">
      <rect x="-1" y="-1" width="78.0272" height="510.1776" fill="none"/>
    </clipPath>
    <clipPath id="clippath-12">
      <rect x="640.4733" y="-1" width="78.0272" height="510.1776" fill="none"/>
    </clipPath>
    <clipPath id="clippath-13">
      <rect x="640.4733" y="-1" width="78.0272" height="510.1776" fill="none"/>
    </clipPath>
    <clipPath id="clippath-14">
      <rect x="640.4733" y="-1" width="78.0272" height="510.1776" fill="none"/>
    </clipPath>
    <clipPath id="clippath-15">
      <rect x="76.2769" y="-.2497" width="565.6969" height="509.4274" fill="none"/>
    </clipPath>
    <clipPath id="clippath-16">
      <rect x="76.2769" y="-.2497" width="565.6969" height="509.4274" fill="none"/>
    </clipPath>
    <clipPath id="clippath-17">
      <rect x="76.2769" y="-.2497" width="565.6969" height="509.4274" fill="none"/>
    </clipPath>
    <clipPath id="clippath-18">
      <rect x="76.2769" y="-.2497" width="565.6969" height="509.4274" fill="none"/>
    </clipPath>
    <clipPath id="clippath-19">
      <rect x="76.2769" y="-.2497" width="564.9467" height="508.6771" fill="none"/>
    </clipPath>
    <clipPath id="clippath-20">
      <rect x="76.2769" y="-.2497" width="564.9467" height="508.6771" fill="none"/>
    </clipPath>
    <clipPath id="clippath-21">
      <rect x="76.2769" y="-.2497" width="564.9467" height="508.6771" fill="none"/>
    </clipPath>
    <clipPath id="clippath-22">
      <rect x="76.2769" y="-.2497" width="564.9467" height="508.6771" fill="none"/>
    </clipPath>
    <clipPath id="clippath-23">
      <rect x="76.2769" y="-.2497" width="564.9467" height="508.6771" fill="none"/>
    </clipPath>
    <clipPath id="clippath-24">
      <rect x="76.2769" y="-.2497" width="565.6969" height="509.4274" fill="none"/>
    </clipPath>
  </defs>
  <rect x="-.2497" y="-.2497" width="718.7502" height="550.6917" fill="#fff"/>
  <rect x="-.2497" y="-.2497" width="718" height="549.9415" fill="#fff"/>
  <g clip-path="url(#clippath)">
    <g>
      <line x1="104.0366" y1="508.4274" x2="104.0366" y2="512.1787" vector-effect="none" fill="none" stroke="#f5f5f5" stroke-linejoin="bevel" stroke-width=".7503"/>
      <line x1="273.5956" y1="508.4274" x2="273.5956" y2="512.1787" vector-effect="none" fill="none" stroke="#f5f5f5" stroke-linejoin="bevel" stroke-width=".7503"/>
      <line x1="443.1546" y1="508.4274" x2="443.1546" y2="512.1787" vector-effect="none" fill="none" stroke="#f5f5f5" stroke-linejoin="bevel" stroke-width=".7503"/>
      <line x1="612.7137" y1="508.4274" x2="612.7137" y2="512.1787" vector-effect="none" fill="none" stroke="#f5f5f5" stroke-linejoin="bevel" stroke-width=".7503"/>
    </g>
  </g>
  <g clip-path="url(#clippath-1)">
    <g>
      <line x1="89.7816" y1="508.4274" x2="89.7816" y2="509.9279" vector-effect="none" fill="none" stroke="#f5f5f5" stroke-linejoin="bevel" stroke-width=".7503"/>
      <line x1="118.2915" y1="508.4274" x2="118.2915" y2="509.9279" vector-effect="none" fill="none" stroke="#f5f5f5" stroke-linejoin="bevel" stroke-width=".7503"/>
      <line x1="131.046" y1="508.4274" x2="131.046" y2="509.9279" vector-effect="none" fill="none" stroke="#f5f5f5" stroke-linejoin="bevel" stroke-width=".7503"/>
      <line x1="146.0512" y1="508.4274" x2="146.0512" y2="509.9279" vector-effect="none" fill="none" stroke="#f5f5f5" stroke-linejoin="bevel" stroke-width=".7503"/>
      <line x1="159.5559" y1="508.4274" x2="159.5559" y2="509.9279" vector-effect="none" fill="none" stroke="#f5f5f5" stroke-linejoin="bevel" stroke-width=".7503"/>
      <line x1="173.8109" y1="508.4274" x2="173.8109" y2="509.9279" vector-effect="none" fill="none" stroke="#f5f5f5" stroke-linejoin="bevel" stroke-width=".7503"/>
      <line x1="188.0658" y1="508.4274" x2="188.0658" y2="509.9279" vector-effect="none" fill="none" stroke="#f5f5f5" stroke-linejoin="bevel" stroke-width=".7503"/>
      <line x1="202.3208" y1="508.4274" x2="202.3208" y2="509.9279" vector-effect="none" fill="none" stroke="#f5f5f5" stroke-linejoin="bevel" stroke-width=".7503"/>
      <line x1="216.5757" y1="508.4274" x2="216.5757" y2="509.9279" vector-effect="none" fill="none" stroke="#f5f5f5" stroke-linejoin="bevel" stroke-width=".7503"/>
      <line x1="230.8307" y1="508.4274" x2="230.8307" y2="509.9279" vector-effect="none" fill="none" stroke="#f5f5f5" stroke-linejoin="bevel" stroke-width=".7503"/>
      <line x1="245.0857" y1="508.4274" x2="245.0857" y2="509.9279" vector-effect="none" fill="none" stroke="#f5f5f5" stroke-linejoin="bevel" stroke-width=".7503"/>
      <line x1="259.3406" y1="508.4274" x2="259.3406" y2="509.9279" vector-effect="none" fill="none" stroke="#f5f5f5" stroke-linejoin="bevel" stroke-width=".7503"/>
      <line x1="287.8506" y1="508.4274" x2="287.8506" y2="509.9279" vector-effect="none" fill="none" stroke="#f5f5f5" stroke-linejoin="bevel" stroke-width=".7503"/>
      <line x1="300.605" y1="508.4274" x2="300.605" y2="509.9279" vector-effect="none" fill="none" stroke="#f5f5f5" stroke-linejoin="bevel" stroke-width=".7503"/>
      <line x1="315.6102" y1="508.4274" x2="315.6102" y2="509.9279" vector-effect="none" fill="none" stroke="#f5f5f5" stroke-linejoin="bevel" stroke-width=".7503"/>
      <line x1="329.1149" y1="508.4274" x2="329.1149" y2="509.9279" vector-effect="none" fill="none" stroke="#f5f5f5" stroke-linejoin="bevel" stroke-width=".7503"/>
      <line x1="343.3699" y1="508.4274" x2="343.3699" y2="509.9279" vector-effect="none" fill="none" stroke="#f5f5f5" stroke-linejoin="bevel" stroke-width=".7503"/>
      <line x1="357.6249" y1="508.4274" x2="357.6249" y2="509.9279" vector-effect="none" fill="none" stroke="#f5f5f5" stroke-linejoin="bevel" stroke-width=".7503"/>
      <line x1="371.8798" y1="508.4274" x2="371.8798" y2="509.9279" vector-effect="none" fill="none" stroke="#f5f5f5" stroke-linejoin="bevel" stroke-width=".7503"/>
      <line x1="386.1348" y1="508.4274" x2="386.1348" y2="509.9279" vector-effect="none" fill="none" stroke="#f5f5f5" stroke-linejoin="bevel" stroke-width=".7503"/>
      <line x1="400.3897" y1="508.4274" x2="400.3897" y2="509.9279" vector-effect="none" fill="none" stroke="#f5f5f5" stroke-linejoin="bevel" stroke-width=".7503"/>
      <line x1="414.6447" y1="508.4274" x2="414.6447" y2="509.9279" vector-effect="none" fill="none" stroke="#f5f5f5" stroke-linejoin="bevel" stroke-width=".7503"/>
      <line x1="428.8997" y1="508.4274" x2="428.8997" y2="509.9279" vector-effect="none" fill="none" stroke="#f5f5f5" stroke-linejoin="bevel" stroke-width=".7503"/>
      <line x1="457.4096" y1="508.4274" x2="457.4096" y2="509.9279" vector-effect="none" fill="none" stroke="#f5f5f5" stroke-linejoin="bevel" stroke-width=".7503"/>
      <line x1="470.9143" y1="508.4274" x2="470.9143" y2="509.9279" vector-effect="none" fill="none" stroke="#f5f5f5" stroke-linejoin="bevel" stroke-width=".7503"/>
      <line x1="485.1693" y1="508.4274" x2="485.1693" y2="509.9279" vector-effect="none" fill="none" stroke="#f5f5f5" stroke-linejoin="bevel" stroke-width=".7503"/>
      <line x1="498.674" y1="508.4274" x2="498.674" y2="509.9279" vector-effect="none" fill="none" stroke="#f5f5f5" stroke-linejoin="bevel" stroke-width=".7503"/>
      <line x1="513.6792" y1="508.4274" x2="513.6792" y2="509.9279" vector-effect="none" fill="none" stroke="#f5f5f5" stroke-linejoin="bevel" stroke-width=".7503"/>
      <line x1="527.1839" y1="508.4274" x2="527.1839" y2="509.9279" vector-effect="none" fill="none" stroke="#f5f5f5" stroke-linejoin="bevel" stroke-width=".7503"/>
      <line x1="541.4388" y1="508.4274" x2="541.4388" y2="509.9279" vector-effect="none" fill="none" stroke="#f5f5f5" stroke-linejoin="bevel" stroke-width=".7503"/>
      <line x1="556.4441" y1="508.4274" x2="556.4441" y2="509.9279" vector-effect="none" fill="none" stroke="#f5f5f5" stroke-linejoin="bevel" stroke-width=".7503"/>
      <line x1="569.9488" y1="508.4274" x2="569.9488" y2="509.9279" vector-effect="none" fill="none" stroke="#f5f5f5" stroke-linejoin="bevel" stroke-width=".7503"/>
      <line x1="584.2037" y1="508.4274" x2="584.2037" y2="509.9279" vector-effect="none" fill="none" stroke="#f5f5f5" stroke-linejoin="bevel" stroke-width=".7503"/>
      <line x1="598.4587" y1="508.4274" x2="598.4587" y2="509.9279" vector-effect="none" fill="none" stroke="#f5f5f5" stroke-linejoin="bevel" stroke-width=".7503"/>
      <line x1="626.9686" y1="508.4274" x2="626.9686" y2="509.9279" vector-effect="none" fill="none" stroke="#f5f5f5" stroke-linejoin="bevel" stroke-width=".7503"/>
      <line x1="640.4733" y1="508.4274" x2="640.4733" y2="509.9279" vector-effect="none" fill="none" stroke="#f5f5f5" stroke-linejoin="bevel" stroke-width=".7503"/>
    </g>
  </g>
  <g clip-path="url(#clippath-2)">
    <g isolation="isolate">
      <text transform="translate(94.0254 521.9316)" fill="#666" font-family="ArialMT, Arial" font-size="9.0031" isolation="isolate"><tspan x="0" y="0">2021</tspan></text>
    </g>
  </g>
  <g clip-path="url(#clippath-3)">
    <g isolation="isolate">
      <text transform="translate(263.959 521.9316)" fill="#666" font-family="ArialMT, Arial" font-size="9.0031" isolation="isolate"><tspan x="0" y="0">2022</tspan></text>
    </g>
  </g>
  <g clip-path="url(#clippath-4)">
    <g isolation="isolate">
      <text transform="translate(433.5176 521.9316)" fill="#666" font-family="ArialMT, Arial" font-size="9.0031" isolation="isolate"><tspan x="0" y="0">2023</tspan></text>
    </g>
  </g>
  <g clip-path="url(#clippath-5)">
    <g isolation="isolate">
      <text transform="translate(603.4521 521.9316)" fill="#666" font-family="ArialMT, Arial" font-size="9.0031" isolation="isolate"><tspan x="0" y="0">2024</tspan></text>
    </g>
  </g>
  <g clip-path="url(#clippath-6)">
    <g isolation="isolate">
      <text transform="translate(349.1846 542.1895)" fill="#333" font-family="ArialMT, Arial" font-size="9.0031" isolation="isolate"><tspan x="0" y="0">Year</tspan></text>
    </g>
  </g>
  <g clip-path="url(#clippath-7)">
    <g>
      <line x1="72.5256" y1="508.4274" x2="76.2769" y2="508.4274" vector-effect="none" fill="none" stroke="#f5f5f5" stroke-linejoin="bevel" stroke-width=".7503"/>
      <line x1="72.5256" y1="452.1578" x2="76.2769" y2="452.1578" vector-effect="none" fill="none" stroke="#f5f5f5" stroke-linejoin="bevel" stroke-width=".7503"/>
      <line x1="72.5256" y1="396.6384" x2="76.2769" y2="396.6384" vector-effect="none" fill="none" stroke="#f5f5f5" stroke-linejoin="bevel" stroke-width=".7503"/>
      <line x1="72.5256" y1="340.3688" x2="76.2769" y2="340.3688" vector-effect="none" fill="none" stroke="#f5f5f5" stroke-linejoin="bevel" stroke-width=".7503"/>
      <line x1="72.5256" y1="284.0993" x2="76.2769" y2="284.0993" vector-effect="none" fill="none" stroke="#f5f5f5" stroke-linejoin="bevel" stroke-width=".7503"/>
      <line x1="72.5256" y1="227.8297" x2="76.2769" y2="227.8297" vector-effect="none" fill="none" stroke="#f5f5f5" stroke-linejoin="bevel" stroke-width=".7503"/>
      <line x1="72.5256" y1="172.3103" x2="76.2769" y2="172.3103" vector-effect="none" fill="none" stroke="#f5f5f5" stroke-linejoin="bevel" stroke-width=".7503"/>
      <line x1="72.5256" y1="116.0407" x2="76.2769" y2="116.0407" vector-effect="none" fill="none" stroke="#f5f5f5" stroke-linejoin="bevel" stroke-width=".7503"/>
      <line x1="72.5256" y1="59.7712" x2="76.2769" y2="59.7712" vector-effect="none" fill="none" stroke="#f5f5f5" stroke-linejoin="bevel" stroke-width=".7503"/>
      <line x1="72.5256" y1="3.5016" x2="76.2769" y2="3.5016" vector-effect="none" fill="none" stroke="#f5f5f5" stroke-linejoin="bevel" stroke-width=".7503"/>
    </g>
  </g>
  <g clip-path="url(#clippath-8)">
    <text transform="translate(30.9912 506.1768)" fill="#5a6ea5" font-family="ArialMT, Arial" font-size="9.0031" isolation="isolate"><tspan x="0" y="0">7,000,000</tspan></text>
  </g>
  <g clip-path="url(#clippath-9)">
    <text transform="translate(30.9912 455.1592)" fill="#5a6ea5" font-family="ArialMT, Arial" font-size="9.0031" isolation="isolate"><tspan x="0" y="0">7,500,000</tspan></text>
  </g>
  <rect x="-1" y="-1" width="78.0272" height="510.1776" fill="none"/>
  <g isolation="isolate">
    <text transform="translate(30.9912 399.6396)" fill="#5a6ea5" font-family="ArialMT, Arial" font-size="9.0031" isolation="isolate"><tspan x="0" y="0">8,000,000</tspan></text>
  </g>
  <rect x="-1" y="-1" width="78.0272" height="510.1776" fill="none"/>
  <g isolation="isolate">
    <text transform="translate(30.9912 343.3701)" fill="#5a6ea5" font-family="ArialMT, Arial" font-size="9.0031" isolation="isolate"><tspan x="0" y="0">8,500,000</tspan></text>
  </g>
  <rect x="-1" y="-1" width="78.0272" height="510.1776" fill="none"/>
  <g isolation="isolate">
    <text transform="translate(30.9912 287.1006)" fill="#5a6ea5" font-family="ArialMT, Arial" font-size="9.0031" isolation="isolate"><tspan x="0" y="0">9,000,000</tspan></text>
  </g>
  <rect x="-1" y="-1" width="78.0272" height="510.1776" fill="none"/>
  <g isolation="isolate">
    <text transform="translate(30.9912 230.8311)" fill="#5a6ea5" font-family="ArialMT, Arial" font-size="9.0031" isolation="isolate"><tspan x="0" y="0">9,500,000</tspan></text>
  </g>
  <rect x="-1" y="-1" width="78.0272" height="510.1776" fill="none"/>
  <g isolation="isolate">
    <text transform="translate(25.9858 175.3115)" fill="#5a6ea5" font-family="ArialMT, Arial" font-size="9.0031" isolation="isolate"><tspan x="0" y="0">10,000,000</tspan></text>
  </g>
  <rect x="-1" y="-1" width="78.0272" height="510.1776" fill="none"/>
  <g isolation="isolate">
    <text transform="translate(25.9858 119.042)" fill="#5a6ea5" font-family="ArialMT, Arial" font-size="9.0031" isolation="isolate"><tspan x="0" y="0">10,500,000</tspan></text>
  </g>
  <rect x="-1" y="-1" width="78.0272" height="510.1776" fill="none"/>
  <g isolation="isolate">
    <text transform="translate(25.9858 62.7725)" fill="#5a6ea5" font-family="ArialMT, Arial" font-size="9.0031" isolation="isolate"><tspan x="0" y="0">11,000,000</tspan></text>
  </g>
  <rect x="-1" y="-1" width="78.0272" height="510.1776" fill="none"/>
  <g isolation="isolate">
    <text transform="translate(25.9858 8.0029)" fill="#5a6ea5" font-family="ArialMT, Arial" font-size="9.0031" isolation="isolate"><tspan x="0" y="0">11,500,000</tspan></text>
  </g>
  <g clip-path="url(#clippath-10)">
    <text transform="translate(13.1494 298.1084) rotate(-90)" fill="#5a6ea5" font-family="Arial-BoldMT, Arial" font-size="9.0031" font-weight="700" isolation="isolate"><tspan x="0" y="0">Audiobook Downloads</tspan></text>
  </g>
  <g clip-path="url(#clippath-11)">
    <g>
      <line x1="76.2769" y1="-.2497" x2="-.2497" y2="-.2497" vector-effect="none" fill="none" stroke="#cbcbcb" stroke-linecap="square" stroke-linejoin="bevel" stroke-width=".7503"/>
      <line x1="76.2769" y1="508.4274" x2="-.2497" y2="508.4274" vector-effect="none" fill="none" stroke="#cbcbcb" stroke-linecap="square" stroke-linejoin="bevel" stroke-width=".7503"/>
      <line x1="76.2769" y1="508.4274" x2="-.2497" y2="508.4274" vector-effect="none" fill="none" stroke="#cbcbcb" stroke-linecap="square" stroke-linejoin="bevel" stroke-width=".7503"/>
    </g>
  </g>
  <g clip-path="url(#clippath-12)">
    <rect x="641.2236" y="-.2497" width="76.5266" height="508.6771" fill="#fff"/>
  </g>
  <g clip-path="url(#clippath-13)">
    <g>
      <line x1="641.2236" y1="508.4274" x2="644.9749" y2="508.4274" vector-effect="none" fill="none" stroke="#333" stroke-linejoin="bevel" stroke-width=".7503"/>
      <line x1="641.2236" y1="473.1651" x2="644.9749" y2="473.1651" vector-effect="none" fill="none" stroke="#333" stroke-linejoin="bevel" stroke-width=".7503"/>
      <line x1="641.2236" y1="438.6531" x2="644.9749" y2="438.6531" vector-effect="none" fill="none" stroke="#333" stroke-linejoin="bevel" stroke-width=".7503"/>
      <line x1="641.2236" y1="403.3908" x2="644.9749" y2="403.3908" vector-effect="none" fill="none" stroke="#333" stroke-linejoin="bevel" stroke-width=".7503"/>
      <line x1="641.2236" y1="368.8788" x2="644.9749" y2="368.8788" vector-effect="none" fill="none" stroke="#333" stroke-linejoin="bevel" stroke-width=".7503"/>
      <line x1="641.2236" y1="333.6165" x2="644.9749" y2="333.6165" vector-effect="none" fill="none" stroke="#333" stroke-linejoin="bevel" stroke-width=".7503"/>
      <line x1="641.2236" y1="298.3542" x2="644.9749" y2="298.3542" vector-effect="none" fill="none" stroke="#333" stroke-linejoin="bevel" stroke-width=".7503"/>
      <line x1="641.2236" y1="263.8422" x2="644.9749" y2="263.8422" vector-effect="none" fill="none" stroke="#333" stroke-linejoin="bevel" stroke-width=".7503"/>
      <line x1="641.2236" y1="228.5799" x2="644.9749" y2="228.5799" vector-effect="none" fill="none" stroke="#333" stroke-linejoin="bevel" stroke-width=".7503"/>
      <line x1="641.2236" y1="193.3177" x2="644.9749" y2="193.3177" vector-effect="none" fill="none" stroke="#333" stroke-linejoin="bevel" stroke-width=".7503"/>
      <line x1="641.2236" y1="158.8056" x2="644.9749" y2="158.8056" vector-effect="none" fill="none" stroke="#333" stroke-linejoin="bevel" stroke-width=".7503"/>
      <line x1="641.2236" y1="123.5434" x2="644.9749" y2="123.5434" vector-effect="none" fill="none" stroke="#333" stroke-linejoin="bevel" stroke-width=".7503"/>
      <line x1="641.2236" y1="89.0313" x2="644.9749" y2="89.0313" vector-effect="none" fill="none" stroke="#333" stroke-linejoin="bevel" stroke-width=".7503"/>
      <line x1="641.2236" y1="53.7691" x2="644.9749" y2="53.7691" vector-effect="none" fill="none" stroke="#333" stroke-linejoin="bevel" stroke-width=".7503"/>
      <line x1="641.2236" y1="18.5068" x2="644.9749" y2="18.5068" vector-effect="none" fill="none" stroke="#333" stroke-linejoin="bevel" stroke-width=".7503"/>
    </g>
  </g>
  <rect x="640.4733" y="-1" width="78.0272" height="510.1776" fill="none"/>
  <g isolation="isolate">
    <text transform="translate(646.9795 506.1768)" fill="#b26a6a" font-family="ArialMT, Arial" font-size="9.0031" isolation="isolate"><tspan x="0" y="0">50M</tspan></text>
  </g>
  <rect x="640.4733" y="-1" width="78.0272" height="510.1776" fill="none"/>
  <g isolation="isolate">
    <text transform="translate(646.9795 476.166)" fill="#b26a6a" font-family="ArialMT, Arial" font-size="9.0031" isolation="isolate"><tspan x="0" y="0">52M</tspan></text>
  </g>
  <rect x="640.4733" y="-1" width="78.0272" height="510.1776" fill="none"/>
  <g isolation="isolate">
    <text transform="translate(646.9795 441.6543)" fill="#b26a6a" font-family="ArialMT, Arial" font-size="9.0031" isolation="isolate"><tspan x="0" y="0">54M</tspan></text>
  </g>
  <rect x="640.4733" y="-1" width="78.0272" height="510.1776" fill="none"/>
  <g isolation="isolate">
    <text transform="translate(646.9795 406.3916)" fill="#b26a6a" font-family="ArialMT, Arial" font-size="9.0031" isolation="isolate"><tspan x="0" y="0">56M</tspan></text>
  </g>
  <rect x="640.4733" y="-1" width="78.0272" height="510.1776" fill="none"/>
  <g isolation="isolate">
    <text transform="translate(646.9795 371.8799)" fill="#b26a6a" font-family="ArialMT, Arial" font-size="9.0031" isolation="isolate"><tspan x="0" y="0">58M</tspan></text>
  </g>
  <rect x="640.4733" y="-1" width="78.0272" height="510.1776" fill="none"/>
  <g isolation="isolate">
    <text transform="translate(646.9795 336.6172)" fill="#b26a6a" font-family="ArialMT, Arial" font-size="9.0031" isolation="isolate"><tspan x="0" y="0">60M</tspan></text>
  </g>
  <rect x="640.4733" y="-1" width="78.0272" height="510.1776" fill="none"/>
  <g isolation="isolate">
    <text transform="translate(646.9795 301.3555)" fill="#b26a6a" font-family="ArialMT, Arial" font-size="9.0031" isolation="isolate"><tspan x="0" y="0">62M</tspan></text>
  </g>
  <rect x="640.4733" y="-1" width="78.0272" height="510.1776" fill="none"/>
  <g isolation="isolate">
    <text transform="translate(646.9795 266.8433)" fill="#b26a6a" font-family="ArialMT, Arial" font-size="9.0031" isolation="isolate"><tspan x="0" y="0">64M</tspan></text>
  </g>
  <rect x="640.4733" y="-1" width="78.0272" height="510.1776" fill="none"/>
  <g isolation="isolate">
    <text transform="translate(646.9795 231.5811)" fill="#b26a6a" font-family="ArialMT, Arial" font-size="9.0031" isolation="isolate"><tspan x="0" y="0">66M</tspan></text>
  </g>
  <rect x="640.4733" y="-1" width="78.0272" height="510.1776" fill="none"/>
  <g isolation="isolate">
    <text transform="translate(646.9795 196.3188)" fill="#b26a6a" font-family="ArialMT, Arial" font-size="9.0031" isolation="isolate"><tspan x="0" y="0">68M</tspan></text>
  </g>
  <rect x="640.4733" y="-1" width="78.0272" height="510.1776" fill="none"/>
  <g isolation="isolate">
    <text transform="translate(646.9795 161.8066)" fill="#b26a6a" font-family="ArialMT, Arial" font-size="9.0031" isolation="isolate"><tspan x="0" y="0">70M</tspan></text>
  </g>
  <rect x="640.4733" y="-1" width="78.0272" height="510.1776" fill="none"/>
  <g isolation="isolate">
    <text transform="translate(646.9795 126.5444)" fill="#b26a6a" font-family="ArialMT, Arial" font-size="9.0031" isolation="isolate"><tspan x="0" y="0">72M</tspan></text>
  </g>
  <rect x="640.4733" y="-1" width="78.0272" height="510.1776" fill="none"/>
  <g isolation="isolate">
    <text transform="translate(646.9795 92.0322)" fill="#b26a6a" font-family="ArialMT, Arial" font-size="9.0031" isolation="isolate"><tspan x="0" y="0">74M</tspan></text>
  </g>
  <rect x="640.4733" y="-1" width="78.0272" height="510.1776" fill="none"/>
  <g isolation="isolate">
    <text transform="translate(646.9795 56.77)" fill="#b26a6a" font-family="ArialMT, Arial" font-size="9.0031" isolation="isolate"><tspan x="0" y="0">76M</tspan></text>
  </g>
  <rect x="640.4733" y="-1" width="78.0272" height="510.1776" fill="none"/>
  <g isolation="isolate">
    <text transform="translate(646.9795 21.5078)" fill="#b26a6a" font-family="ArialMT, Arial" font-size="9.0031" isolation="isolate"><tspan x="0" y="0">78M</tspan></text>
  </g>
  <rect x="640.4733" y="-1" width="78.0272" height="510.1776" fill="none"/>
  <text transform="translate(710.1416 304.3447) rotate(-90)" fill="#b26a6a" font-family="Arial-BoldMT, Arial" font-size="9.0031" font-weight="700" isolation="isolate"><tspan x="0" y="0">Physical Books Borrowed</tspan></text>
  <g clip-path="url(#clippath-14)">
    <g>
      <line x1="717.7502" y1="-.2497" x2="641.2236" y2="-.2497" vector-effect="none" fill="none" stroke="#cbcbcb" stroke-linecap="square" stroke-linejoin="bevel" stroke-width=".7503"/>
      <line x1="717.7502" y1="508.4274" x2="641.2236" y2="508.4274" vector-effect="none" fill="none" stroke="#cbcbcb" stroke-linecap="square" stroke-linejoin="bevel" stroke-width=".7503"/>
      <line x1="717.7502" y1="508.4274" x2="641.2236" y2="508.4274" vector-effect="none" fill="none" stroke="#cbcbcb" stroke-linecap="square" stroke-linejoin="bevel" stroke-width=".7503"/>
    </g>
  </g>
  <g clip-path="url(#clippath-15)">
    <rect x="76.2769" y="-.2497" width="565.6969" height="509.4274" fill="#fff"/>
  </g>
  <g clip-path="url(#clippath-16)">
    <rect x="76.2769" y="-.2497" width="565.6969" height="509.4274" fill="#fff"/>
  </g>
  <g clip-path="url(#clippath-17)">
    <rect x="76.2769" y="-.2497" width="565.6969" height="509.4274" fill="#fff"/>
  </g>
  <g clip-path="url(#clippath-18)">
    <rect x="76.2769" y="-.2497" width="565.6969" height="509.4274" fill="#fff"/>
  </g>
  <g clip-path="url(#clippath-19)">
    <g>
      <line x1="76.2769" y1="508.4274" x2="641.2236" y2="508.4274" vector-effect="none" fill="none" stroke="#f2f2f2" stroke-linecap="square" stroke-linejoin="bevel" stroke-width=".7503"/>
      <line x1="76.2769" y1="452.1578" x2="641.2236" y2="452.1578" vector-effect="none" fill="none" stroke="#f2f2f2" stroke-linecap="square" stroke-linejoin="bevel" stroke-width=".7503"/>
      <line x1="76.2769" y1="396.6384" x2="641.2236" y2="396.6384" vector-effect="none" fill="none" stroke="#f2f2f2" stroke-linecap="square" stroke-linejoin="bevel" stroke-width=".7503"/>
      <line x1="76.2769" y1="340.3688" x2="641.2236" y2="340.3688" vector-effect="none" fill="none" stroke="#f2f2f2" stroke-linecap="square" stroke-linejoin="bevel" stroke-width=".7503"/>
      <line x1="76.2769" y1="284.0993" x2="641.2236" y2="284.0993" vector-effect="none" fill="none" stroke="#f2f2f2" stroke-linecap="square" stroke-linejoin="bevel" stroke-width=".7503"/>
      <line x1="76.2769" y1="227.8297" x2="641.2236" y2="227.8297" vector-effect="none" fill="none" stroke="#f2f2f2" stroke-linecap="square" stroke-linejoin="bevel" stroke-width=".7503"/>
      <line x1="76.2769" y1="172.3103" x2="641.2236" y2="172.3103" vector-effect="none" fill="none" stroke="#f2f2f2" stroke-linecap="square" stroke-linejoin="bevel" stroke-width=".7503"/>
      <line x1="76.2769" y1="116.0407" x2="641.2236" y2="116.0407" vector-effect="none" fill="none" stroke="#f2f2f2" stroke-linecap="square" stroke-linejoin="bevel" stroke-width=".7503"/>
      <line x1="76.2769" y1="59.7712" x2="641.2236" y2="59.7712" vector-effect="none" fill="none" stroke="#f2f2f2" stroke-linecap="square" stroke-linejoin="bevel" stroke-width=".7503"/>
      <line x1="76.2769" y1="3.5016" x2="641.2236" y2="3.5016" vector-effect="none" fill="none" stroke="#f2f2f2" stroke-linecap="square" stroke-linejoin="bevel" stroke-width=".7503"/>
    </g>
  </g>
  <g clip-path="url(#clippath-20)">
    <polyline points="104.6244 427.6962 274.2918 402.0996 443.9589 229.3647 613.626 67.9019" vector-effect="none" fill="none" stroke="#5a6ea5" stroke-linecap="round" stroke-linejoin="round" stroke-width="5.0446"/>
  </g>
  <g clip-path="url(#clippath-21)">
    <path d="M76.2769-.2497" vector-effect="none" fill="none" stroke="#f2f2f2" stroke-linecap="square" stroke-linejoin="bevel" stroke-width=".7503"/>
  </g>
  <g clip-path="url(#clippath-22)">
    <polyline points="104.6244 380.4606 274.2918 88.3614 443.9589 72.5911 613.626 117.6125" vector-effect="none" fill="none" stroke="#b26a6a" stroke-linecap="round" stroke-linejoin="round" stroke-width="5.0446"/>
  </g>
  <g clip-path="url(#clippath-23)">
    <path d="M76.2769-.2497" vector-effect="none" fill="none" stroke="#f2f2f2" stroke-linecap="square" stroke-linejoin="bevel" stroke-width=".7503"/>
  </g>
  <g clip-path="url(#clippath-24)">
    <g>
      <line x1="76.2769" y1="-.2497" x2="76.2769" y2="508.4274" vector-effect="none" fill="none" stroke="#cbcbcb" stroke-linecap="square" stroke-linejoin="bevel" stroke-width=".7503"/>
      <line x1="641.2236" y1="-.2497" x2="641.2236" y2="508.4274" vector-effect="none" fill="none" stroke="#cbcbcb" stroke-linecap="square" stroke-linejoin="bevel" stroke-width=".7503"/>
      <line x1="76.2769" y1="-.2497" x2="641.2236" y2="-.2497" vector-effect="none" fill="none" stroke="#cbcbcb" stroke-linecap="square" stroke-linejoin="bevel" stroke-width=".7503"/>
      <line x1="76.2769" y1="508.4274" x2="641.2236" y2="508.4274" vector-effect="none" fill="none" stroke="#cbcbcb" stroke-linecap="square" stroke-linejoin="bevel" stroke-width=".7503"/>
    </g>
  </g>
  <g>
    <circle cx="104.2678" cy="383.8841" r="14.0508" fill="#b26a6a"/>
    <g id="AuQe9Q.tif1">
      <g>
        <path d="M109.9024,377.9642c-1.7118,0-3.5662.4993-4.7074,1.7118s-.5706.6419-.5706.7846v8.7015c1.2838-1.2125,2.9956-1.6405,4.7787-1.7831s1.0699.0713,1.1412-.5706v-8.2736c0-.2853-.2853-.4993-.5706-.4993s-.0713,0-.1427,0l.0713-.0713h.0001Z" fill="#fff"/>
        <path d="M98.2766,377.9642c-.2853,0-.4993.2853-.5706.4993v8.2736c0,.7132.6419.5706,1.1412.5706,1.7831.1426,3.4949.6419,4.7787,1.7831v-8.7015c0-.214-.4279-.6419-.5706-.7846-1.1412-1.2125-2.9956-1.6405-4.7074-1.7118s-.0713,0-.1427,0l.0713.0713h.0001Z" fill="#fff"/>
        <path d="M95.7802,380.3179v8.9868c.0713.214.2853.4279.5706.4279s1.1412-.214,1.5691-.2853c1.3551-.1426,2.7816-.214,4.1368,0s.5706.0713.7846.1426c-.8559-.7846-2.211-1.2125-3.4235-1.3551s-1.7118.0713-2.3537-.6419-.2853-.4993-.2853-.5706v-7.1324h-.5706c-.214,0-.4279.2853-.4993.4279h.0713Z" fill="#fff"/>
        <path d="M111.4715,379.89v7.1324c0,.1426-.214.4993-.2853.5706-.5706.7132-1.4978.5706-2.3537.6419s-2.4963.5706-3.4235,1.3551c.2853,0,.5706-.0713.7846-.1426,1.3551-.214,2.7816-.1426,4.1368,0s1.1412.2853,1.4978.2853.5706-.214.6419-.5706v-8.7728c0-.1426-.0713-.3566-.2853-.4279l-.214-.0713h-.5706.0713Z" fill="#fff"/>
      </g>
    </g>
  </g>
  <g>
    <circle cx="106.1077" cy="426.6437" r="14.0493" fill="#5a6ea5"/>
    <g id="nOlXaF.tif">
      <g>
        <path d="M106.393,416.4455c.4279.1426.9984.0713,1.4263.2139,4.065.7132,7.3455,4.6355,7.3455,8.7719.2853.2853.6418.3566.9271.6418s.5705.9271.6418,1.4263c.0713,1.0697.1426,4.1363,0,5.1348s-1.0697,1.8542-1.9968,1.8542h-1.8542v-8.9858c-.4992-8.8432-12.9082-8.7719-13.55-.1426v9.1998h-1.8542s-.5705-.1426-.6418-.2139c-.7132-.2853-1.1411-.9271-1.4263-1.6403v-5.42c.2853-.8558.7132-1.4263,1.5689-1.7829.1426-4.7069,3.8511-8.8432,8.6292-8.9858h.214c0-.0713.6418-.0713.6418-.0713h-.0713,0Z" fill="#fff"/>
        <path d="M100.1885,434.2032c-.1426-.1426-.214-.4279-.214-.5705-.214-2.3534.1426-4.9921,0-7.3455.0713-.9271,1.4263-1.0697,1.5689.1426.214,2.2108-.214,4.9208,0,7.2029,0,.7132-.9271,1.1411-1.4263.5705h.0714Z" fill="#fff"/>
        <path d="M111.8843,434.2032c-.5705.5705-1.2837.0713-1.4263-.7132-.214-2.2821.1426-4.9208,0-7.2029.1426-1.0697,1.4976-.9984,1.5689-.0713-.1426,2.3534.214,5.0634,0,7.3455s0,.4279-.214.5705l.0713.0713h0Z" fill="#fff"/>
      </g>
    </g>
  </g>
  <g>
    <circle cx="274.3536" cy="400.918" r="14.0493" fill="#5a6ea5"/>
    <g id="nOlXaF.tif1">
      <g>
        <path d="M274.6389,390.7198c.4279.1426.9984.0713,1.4263.2139,4.065.7132,7.3455,4.6355,7.3455,8.7719.2853.2853.6418.3566.9271.6418s.5705.9271.6418,1.4263c.0713,1.0697.1426,4.1363,0,5.1348s-1.0697,1.8542-1.9968,1.8542h-1.8542v-8.9858c-.4992-8.8432-12.9082-8.7719-13.55-.1426v9.1998h-1.8542s-.5705-.1426-.6418-.2139c-.7132-.2853-1.1411-.9271-1.4263-1.6403v-5.42c.2853-.8558.7132-1.4263,1.5689-1.7829.1426-4.7069,3.8511-8.8432,8.6292-8.9858h.214c0-.0713.6418-.0713.6418-.0713h-.0714Z" fill="#fff"/>
        <path d="M268.4344,408.4775c-.1426-.1426-.214-.4279-.214-.5705-.214-2.3534.1426-4.9921,0-7.3455.0713-.9271,1.4263-1.0697,1.5689.1426.214,2.2108-.214,4.9208,0,7.2029,0,.7132-.9271,1.1411-1.4263.5705h.0714Z" fill="#fff"/>
        <path d="M280.1302,408.4775c-.5705.5705-1.2837.0713-1.4263-.7132-.214-2.2821.1426-4.9208,0-7.2029.1426-1.0697,1.4976-.9984,1.5689-.0713-.1426,2.3534.214,5.0634,0,7.3455s0,.4279-.214.5705l.0713.0713h0Z" fill="#fff"/>
      </g>
    </g>
  </g>
  <g>
    <circle cx="448.6926" cy="224.3579" r="14.0493" fill="#5a6ea5"/>
    <g id="nOlXaF.tif2">
      <g>
        <path d="M448.9778,214.1597c.4279.1426.9984.0713,1.4263.2139,4.065.7132,7.3455,4.6355,7.3455,8.7719.2853.2853.6418.3566.9271.6418s.5705.9271.6418,1.4263c.0713,1.0697.1426,4.1363,0,5.1348s-1.0697,1.8542-1.9968,1.8542h-1.8542v-8.9858c-.4992-8.8432-12.9082-8.7719-13.55-.1426v9.1998h-1.8542s-.5705-.1426-.6418-.2139c-.7132-.2853-1.1411-.9271-1.4263-1.6403v-5.42c.2853-.8558.7132-1.4263,1.5689-1.7829.1426-4.7069,3.8511-8.8432,8.6292-8.9858h.214c0-.0713.6418-.0713.6418-.0713h-.0714Z" fill="#fff"/>
        <path d="M442.7733,231.9174c-.1426-.1426-.214-.4279-.214-.5705-.214-2.3534.1426-4.9921,0-7.3455.0713-.9271,1.4263-1.0697,1.5689.1426.214,2.2108-.214,4.9208,0,7.2029,0,.7132-.9271,1.1411-1.4263.5705h.0714Z" fill="#fff"/>
        <path d="M454.4691,231.9174c-.5705.5705-1.2837.0713-1.4263-.7132-.214-2.2821.1426-4.9208,0-7.2029.1426-1.0697,1.4976-.9984,1.5689-.0713-.1426,2.3534.214,5.0634,0,7.3455s0,.4279-.214.5705l.0713.0713h0Z" fill="#fff"/>
      </g>
    </g>
  </g>
  <g>
    <circle cx="615.4376" cy="67.0147" r="14.0493" fill="#5a6ea5"/>
    <g id="nOlXaF.tif3">
      <g>
        <path d="M615.7229,56.8165c.4279.1426.9984.0713,1.4263.2139,4.065.7132,7.3455,4.6355,7.3455,8.7719.2853.2853.6418.3566.9271.6418s.5705.9271.6418,1.4263c.0713,1.0697.1426,4.1363,0,5.1348s-1.0697,1.8542-1.9968,1.8542h-1.8542v-8.9858c-.4992-8.8432-12.9082-8.7719-13.55-.1426v9.1998h-1.8542s-.5705-.1426-.6418-.2139c-.7132-.2853-1.1411-.9271-1.4263-1.6403v-5.42c.2853-.8558.7132-1.4263,1.5689-1.7829.1426-4.7069,3.8511-8.8432,8.6292-8.9858h.214c0-.0713.6418-.0713.6418-.0713h-.0714Z" fill="#fff"/>
        <path d="M609.5184,74.5742c-.1426-.1426-.214-.4279-.214-.5705-.214-2.3534.1426-4.9921,0-7.3455.0713-.9271,1.4263-1.0697,1.5689.1426.214,2.2108-.214,4.9208,0,7.2029,0,.7132-.9271,1.1411-1.4263.5705h.0714Z" fill="#fff"/>
        <path d="M621.2142,74.5742c-.5705.5705-1.2837.0713-1.4263-.7132-.214-2.2821.1426-4.9208,0-7.2029.1426-1.0697,1.4976-.9984,1.5689-.0713-.1426,2.3534.214,5.0634,0,7.3455s0,.4279-.214.5705l.0713.0713h.0001Z" fill="#fff"/>
      </g>
    </g>
  </g>
  <g>
    <circle cx="275.0764" cy="88.932" r="14.0508" fill="#b26a6a"/>
    <g id="AuQe9Q.tif11">
      <g>
        <path d="M280.711,83.0121c-1.7118,0-3.5662.4993-4.7074,1.7118s-.5706.6419-.5706.7846v8.7015c1.2838-1.2125,2.9956-1.6405,4.7787-1.7831s1.0699.0713,1.1412-.5706v-8.2736c0-.2853-.2853-.4993-.5706-.4993s-.0713,0-.1427,0l.0713-.0713h0Z" fill="#fff"/>
        <path d="M269.0852,83.0121c-.2853,0-.4993.2853-.5706.4993v8.2736c0,.7132.6419.5706,1.1412.5706,1.7831.1426,3.4949.6419,4.7787,1.7831v-8.7015c0-.214-.4279-.6419-.5706-.7846-1.1412-1.2125-2.9956-1.6405-4.7074-1.7118s-.0713,0-.1427,0l.0713.0713h0Z" fill="#fff"/>
        <path d="M266.5889,85.3658v8.9868c.0713.214.2853.4279.5706.4279s1.1412-.214,1.5691-.2853c1.3551-.1426,2.7816-.214,4.1368,0s.5706.0713.7846.1426c-.8559-.7846-2.211-1.2125-3.4235-1.3551s-1.7118.0713-2.3537-.6419-.2853-.4993-.2853-.5706v-7.1324h-.5706c-.214,0-.4279.2853-.4993.4279h.0713Z" fill="#fff"/>
        <path d="M282.2801,84.9378v7.1324c0,.1426-.214.4993-.2853.5706-.5706.7132-1.4978.5706-2.3537.6419s-2.4963.5706-3.4235,1.3551c.2853,0,.5706-.0713.7846-.1426,1.3551-.214,2.7816-.1426,4.1368,0s1.1412.2853,1.4978.2853.5706-.214.6419-.5706v-8.7728c0-.1426-.0713-.3566-.2853-.4279l-.214-.0713h-.5706.0713,0Z" fill="#fff"/>
      </g>
    </g>
  </g>
  <g>
    <circle cx="442.4891" cy="70.4763" r="14.0508" fill="#b26a6a"/>
    <g id="AuQe9Q.tif12">
      <g>
        <path d="M448.1237,64.5564c-1.7118,0-3.5662.4993-4.7074,1.7118s-.5706.6419-.5706.7846v8.7015c1.2838-1.2125,2.9956-1.6405,4.7787-1.7831s1.0699.0713,1.1412-.5706v-8.2736c0-.2853-.2853-.4993-.5706-.4993s-.0713,0-.1427,0l.0713-.0713h0Z" fill="#fff"/>
        <path d="M436.4979,64.5564c-.2853,0-.4993.2853-.5706.4993v8.2736c0,.7132.6419.5706,1.1412.5706,1.7831.1426,3.4949.6419,4.7787,1.7831v-8.7015c0-.214-.4279-.6419-.5706-.7846-1.1412-1.2125-2.9956-1.6405-4.7074-1.7118s-.0713,0-.1427,0l.0713.0713h0Z" fill="#fff"/>
        <path d="M434.0016,66.9101v8.9868c.0713.214.2853.4279.5706.4279s1.1412-.214,1.5691-.2853c1.3551-.1426,2.7816-.214,4.1368,0s.5706.0713.7846.1426c-.8559-.7846-2.211-1.2125-3.4235-1.3551s-1.7118.0713-2.3537-.6419-.2853-.4993-.2853-.5706v-7.1324h-.5706c-.214,0-.4279.2853-.4993.4279h.0713Z" fill="#fff"/>
        <path d="M449.6928,66.4821v7.1324c0,.1426-.214.4993-.2853.5706-.5706.7132-1.4978.5706-2.3537.6419s-2.4963.5706-3.4235,1.3551c.2853,0,.5706-.0713.7846-.1426,1.3551-.214,2.7816-.1426,4.1368,0s1.1412.2853,1.4978.2853.5706-.214.6419-.5706v-8.7728c0-.1426-.0713-.3566-.2853-.4279l-.214-.0713h-.5706.0713,0Z" fill="#fff"/>
      </g>
    </g>
  </g>
  <g>
    <circle cx="614.2679" cy="121.1074" r="14.0508" fill="#b26a6a"/>
    <g id="AuQe9Q.tif13">
      <g>
        <path d="M619.9024,115.1875c-1.7118,0-3.5662.4993-4.7074,1.7118s-.5706.6419-.5706.7846v8.7015c1.2838-1.2125,2.9956-1.6405,4.7787-1.7831s1.0699.0713,1.1412-.5706v-8.2736c0-.2853-.2853-.4993-.5706-.4993s-.0713,0-.1427,0l.0713-.0713h.0002Z" fill="#fff"/>
        <path d="M608.2767,115.1875c-.2853,0-.4993.2853-.5706.4993v8.2736c0,.7132.6419.5706,1.1412.5706,1.7831.1426,3.4949.6419,4.7787,1.7831v-8.7015c0-.214-.4279-.6419-.5706-.7846-1.1412-1.2125-2.9956-1.6405-4.7074-1.7118s-.0713,0-.1427,0l.0713.0713h.0002Z" fill="#fff"/>
        <path d="M605.7803,117.5412v8.9868c.0713.214.2853.4279.5706.4279s1.1412-.214,1.5691-.2853c1.3551-.1426,2.7816-.214,4.1368,0s.5706.0713.7846.1426c-.8559-.7846-2.211-1.2125-3.4235-1.3551s-1.7118.0713-2.3537-.6419-.2853-.4993-.2853-.5706v-7.1324h-.5706c-.214,0-.4279.2853-.4993.4279h.0714Z" fill="#fff"/>
        <path d="M621.4716,117.1133v7.1324c0,.1426-.214.4993-.2853.5706-.5706.7132-1.4978.5706-2.3537.6419s-2.4963.5706-3.4235,1.3551c.2853,0,.5706-.0713.7846-.1426,1.3551-.214,2.7816-.1426,4.1368,0s1.1412.2853,1.4978.2853.5706-.214.6419-.5706v-8.7728c0-.1426-.0713-.3566-.2853-.4279l-.214-.0713h-.5706.0713Z" fill="#fff"/>
      </g>
    </g>
  </g>
</svg>