<?xml version="1.0" encoding="UTF-8"?>
<svg id="Layer_1" xmlns="http://www.w3.org/2000/svg" xmlns:xlink="http://www.w3.org/1999/xlink" version="1.1" viewBox="0 0 963 735">
  <!-- Generator: Adobe Illustrator 29.6.1, SVG Export Plug-In . SVG Version: 2.1.1 Build 9)  -->
  <defs>
    <style>
      .st0, .st1, .st2, .st3, .st4 {
        fill: none;
      }

      .st1 {
        stroke: #f2f2f2;
      }

      .st1, .st2, .st3, .st4 {
        stroke-linejoin: bevel;
      }

      .st1, .st3, .st4 {
        stroke-linecap: square;
      }

      .st5 {
        fill: #333;
      }

      .st5, .st6 {
        font-family: ArialMT, Arial;
        font-size: 12px;
        isolation: isolate;
      }

      .st2, .st3 {
        stroke: #f5f5f5;
      }

      .st7 {
        clip-path: url(#clippath-11);
      }

      .st8 {
        clip-path: url(#clippath-18);
      }

      .st9 {
        clip-path: url(#clippath-10);
      }

      .st10 {
        clip-path: url(#clippath-15);
      }

      .st11 {
        clip-path: url(#clippath-13);
      }

      .st12 {
        clip-path: url(#clippath-14);
      }

      .st13 {
        clip-path: url(#clippath-12);
      }

      .st14 {
        clip-path: url(#clippath-79);
      }

      .st15 {
        clip-path: url(#clippath-33);
      }

      .st16 {
        clip-path: url(#clippath-30);
      }

      .st17 {
        clip-path: url(#clippath-36);
      }

      .st18 {
        clip-path: url(#clippath-22);
      }

      .st19 {
        clip-path: url(#clippath-23);
      }

      .st20 {
        clip-path: url(#clippath-25);
      }

      .st21 {
        clip-path: url(#clippath-46);
      }

      .st22 {
        clip-path: url(#clippath-4);
      }

      .st23 {
        clip-path: url(#clippath-7);
      }

      .st24 {
        clip-path: url(#clippath-6);
      }

      .st25 {
        clip-path: url(#clippath-9);
      }

      .st26 {
        clip-path: url(#clippath-8);
      }

      .st27 {
        clip-path: url(#clippath-5);
      }

      .st28 {
        fill: #fff;
      }

      .st6 {
        fill: #666;
      }

      .st29 {
        fill: #b26a6a;
      }

      .st4 {
        stroke: #cbcbcb;
        stroke-dasharray: 1 2;
      }
    </style>
    <clipPath id="clippath">
      <rect class="st0" width="958" height="734"/>
    </clipPath>
    <clipPath id="clippath-2">
      <rect class="st0" x="99" y="-1" width="860" height="22"/>
    </clipPath>
    <clipPath id="clippath-3">
      <rect class="st0" x="99" y="678" width="860" height="57"/>
    </clipPath>
    <clipPath id="clippath-4">
      <rect class="st0" x="99" y="678" width="860" height="57"/>
    </clipPath>
    <clipPath id="clippath-5">
      <rect class="st0" x="99" y="678" width="860" height="57"/>
    </clipPath>
    <clipPath id="clippath-6">
      <rect class="st0" x="99" y="678" width="860" height="57"/>
    </clipPath>
    <clipPath id="clippath-7">
      <rect class="st0" x="99" y="678" width="860" height="57"/>
    </clipPath>
    <clipPath id="clippath-8">
      <rect class="st0" x="99" y="678" width="860" height="57"/>
    </clipPath>
    <clipPath id="clippath-9">
      <rect class="st0" x="99" y="678" width="860" height="57"/>
    </clipPath>
    <clipPath id="clippath-10">
      <rect class="st0" x="99" y="678" width="860" height="57"/>
    </clipPath>
    <clipPath id="clippath-11">
      <rect class="st0" x="99" y="678" width="860" height="57"/>
    </clipPath>
    <clipPath id="clippath-12">
      <rect class="st0" x="99" y="678" width="860" height="57"/>
    </clipPath>
    <clipPath id="clippath-13">
      <rect class="st0" x="99" y="678" width="860" height="57"/>
    </clipPath>
    <clipPath id="clippath-14">
      <rect class="st0" x="99" y="678" width="860" height="57"/>
    </clipPath>
    <clipPath id="clippath-15">
      <rect class="st0" x="99" y="678" width="860" height="57"/>
    </clipPath>
    <clipPath id="clippath-16">
      <rect class="st0" x="-1" y="19" width="102" height="661"/>
    </clipPath>
    <clipPath id="clippath-18">
      <rect class="st0" x="-1" y="19" width="102" height="661"/>
    </clipPath>
    <clipPath id="clippath-19">
      <rect class="st0" x="-1" y="19" width="102" height="661"/>
    </clipPath>
    <clipPath id="clippath-20">
      <rect class="st0" x="100" y="20" width="859" height="660"/>
    </clipPath>
    <clipPath id="clippath-21">
      <rect class="st0" x="100" y="20" width="859" height="660"/>
    </clipPath>
    <clipPath id="clippath-22">
      <rect class="st0" x="100" y="20" width="859" height="660"/>
    </clipPath>
    <clipPath id="clippath-23">
      <rect class="st0" x="100" y="20" width="859" height="660"/>
    </clipPath>
    <clipPath id="clippath-24">
      <rect class="st0" x="100" y="20" width="859" height="660"/>
    </clipPath>
    <clipPath id="clippath-25">
      <rect class="st0" x="100" y="20" width="859" height="660"/>
    </clipPath>
    <clipPath id="clippath-26">
      <rect class="st0" x="100" y="20" width="859" height="660"/>
    </clipPath>
    <clipPath id="clippath-27">
      <rect class="st0" x="100" y="20" width="859" height="660"/>
    </clipPath>
    <clipPath id="clippath-28">
      <rect class="st0" x="100" y="20" width="859" height="660"/>
    </clipPath>
    <clipPath id="clippath-29">
      <rect class="st0" x="100" y="20" width="859" height="660"/>
    </clipPath>
    <clipPath id="clippath-30">
      <rect class="st0" x="100" y="20" width="859" height="660"/>
    </clipPath>
    <clipPath id="clippath-31">
      <rect class="st0" x="100" y="20" width="859" height="660"/>
    </clipPath>
    <clipPath id="clippath-32">
      <rect class="st0" x="100" y="20" width="858" height="659"/>
    </clipPath>
    <clipPath id="clippath-33">
      <rect class="st0" x="100" y="20" width="858" height="659"/>
    </clipPath>
    <clipPath id="clippath-34">
      <rect class="st0" x="100" y="20" width="859" height="660"/>
    </clipPath>
    <clipPath id="clippath-35">
      <rect class="st0" x="100" y="20" width="858" height="659"/>
    </clipPath>
    <clipPath id="clippath-36">
      <rect class="st0" x="100" y="20" width="858" height="659"/>
    </clipPath>
    <clipPath id="clippath-37">
      <rect class="st0" x="100" y="20" width="859" height="660"/>
    </clipPath>
    <clipPath id="clippath-38">
      <rect class="st0" x="100" y="20" width="858" height="659"/>
    </clipPath>
    <clipPath id="clippath-39">
      <rect class="st0" x="100" y="20" width="859" height="660"/>
    </clipPath>
    <clipPath id="clippath-40">
      <rect class="st0" x="100" y="20" width="859" height="660"/>
    </clipPath>
    <clipPath id="clippath-41">
      <rect class="st0" x="100" y="20" width="858" height="659"/>
    </clipPath>
    <clipPath id="clippath-42">
      <rect class="st0" x="100" y="20" width="859" height="660"/>
    </clipPath>
    <clipPath id="clippath-43">
      <rect class="st0" x="100" y="20" width="858" height="659"/>
    </clipPath>
    <clipPath id="clippath-44">
      <rect class="st0" x="100" y="20" width="859" height="660"/>
    </clipPath>
    <clipPath id="clippath-45">
      <rect class="st0" x="100" y="20" width="858" height="659"/>
    </clipPath>
    <clipPath id="clippath-46">
      <rect class="st0" x="100" y="20" width="858" height="659"/>
    </clipPath>
    <clipPath id="clippath-48">
      <rect class="st0" x="100" y="20" width="859" height="660"/>
    </clipPath>
    <clipPath id="clippath-49">
      <rect class="st0" x="100" y="20" width="859" height="660"/>
    </clipPath>
    <clipPath id="clippath-50">
      <rect class="st0" x="100" y="20" width="858" height="659"/>
    </clipPath>
    <clipPath id="clippath-51">
      <rect class="st0" x="100" y="20" width="859" height="660"/>
    </clipPath>
    <clipPath id="clippath-52">
      <rect class="st0" x="100" y="20" width="858" height="659"/>
    </clipPath>
    <clipPath id="clippath-53">
      <rect class="st0" x="100" y="20" width="859" height="660"/>
    </clipPath>
    <clipPath id="clippath-54">
      <rect class="st0" x="100" y="20" width="858" height="659"/>
    </clipPath>
    <clipPath id="clippath-55">
      <rect class="st0" x="100" y="20" width="859" height="660"/>
    </clipPath>
    <clipPath id="clippath-56">
      <rect class="st0" x="100" y="20" width="859" height="660"/>
    </clipPath>
    <clipPath id="clippath-57">
      <rect class="st0" x="100" y="20" width="858" height="659"/>
    </clipPath>
    <clipPath id="clippath-58">
      <rect class="st0" x="100" y="20" width="859" height="660"/>
    </clipPath>
    <clipPath id="clippath-59">
      <rect class="st0" x="100" y="20" width="858" height="659"/>
    </clipPath>
    <clipPath id="clippath-60">
      <rect class="st0" x="100" y="20" width="859" height="660"/>
    </clipPath>
    <clipPath id="clippath-61">
      <rect class="st0" x="100" y="20" width="858" height="659"/>
    </clipPath>
    <clipPath id="clippath-62">
      <rect class="st0" x="100" y="20" width="859" height="660"/>
    </clipPath>
    <clipPath id="clippath-63">
      <rect class="st0" x="100" y="20" width="859" height="660"/>
    </clipPath>
    <clipPath id="clippath-64">
      <rect class="st0" x="100" y="20" width="858" height="659"/>
    </clipPath>
    <clipPath id="clippath-65">
      <rect class="st0" x="100" y="20" width="859" height="660"/>
    </clipPath>
    <clipPath id="clippath-66">
      <rect class="st0" x="100" y="20" width="858" height="659"/>
    </clipPath>
    <clipPath id="clippath-67">
      <rect class="st0" x="100" y="20" width="859" height="660"/>
    </clipPath>
    <clipPath id="clippath-68">
      <rect class="st0" x="100" y="20" width="858" height="659"/>
    </clipPath>
    <clipPath id="clippath-69">
      <rect class="st0" x="100" y="20" width="859" height="660"/>
    </clipPath>
    <clipPath id="clippath-70">
      <rect class="st0" x="100" y="20" width="859" height="660"/>
    </clipPath>
    <clipPath id="clippath-71">
      <rect class="st0" x="100" y="20" width="858" height="659"/>
    </clipPath>
    <clipPath id="clippath-72">
      <rect class="st0" x="100" y="20" width="859" height="660"/>
    </clipPath>
    <clipPath id="clippath-73">
      <rect class="st0" x="100" y="20" width="858" height="659"/>
    </clipPath>
    <clipPath id="clippath-74">
      <rect class="st0" x="100" y="20" width="859" height="660"/>
    </clipPath>
    <clipPath id="clippath-75">
      <rect class="st0" x="100" y="20" width="858" height="659"/>
    </clipPath>
    <clipPath id="clippath-76">
      <rect class="st0" x="100" y="20" width="859" height="660"/>
    </clipPath>
    <clipPath id="clippath-77">
      <rect class="st0" x="100" y="20" width="859" height="660"/>
    </clipPath>
    <clipPath id="clippath-78">
      <rect class="st0" x="100" y="20" width="859" height="660"/>
    </clipPath>
    <clipPath id="clippath-79">
      <rect class="st0" x="100" y="20" width="859" height="660"/>
    </clipPath>
    <clipPath id="clippath-80">
      <rect class="st0" x="100" y="20" width="859" height="660"/>
    </clipPath>
  </defs>
  <rect class="st28" width="958" height="734"/>
  <rect class="st28" width="958" height="734"/>
  <g class="st22">
    <g>
      <line class="st2" x1="100" y1="679" x2="100" y2="684" vector-effect="none"/>
      <line class="st2" x1="188" y1="679" x2="188" y2="684" vector-effect="none"/>
      <line class="st2" x1="276" y1="679" x2="276" y2="684" vector-effect="none"/>
      <line class="st2" x1="363" y1="679" x2="363" y2="684" vector-effect="none"/>
      <line class="st2" x1="451" y1="679" x2="451" y2="684" vector-effect="none"/>
      <line class="st2" x1="539" y1="679" x2="539" y2="684" vector-effect="none"/>
      <line class="st2" x1="627" y1="679" x2="627" y2="684" vector-effect="none"/>
      <line class="st2" x1="714" y1="679" x2="714" y2="684" vector-effect="none"/>
      <line class="st2" x1="802" y1="679" x2="802" y2="684" vector-effect="none"/>
      <line class="st2" x1="890" y1="679" x2="890" y2="684" vector-effect="none"/>
    </g>
  </g>
  <g class="st27">
    <text class="st6" transform="translate(101.7 697)"><tspan x="0" y="0">0</tspan></text>
  </g>
  <g class="st24">
    <text class="st6" transform="translate(184.7 697)"><tspan x="0" y="0">5</tspan></text>
  </g>
  <g class="st23">
    <text class="st6" transform="translate(269.3 697)"><tspan x="0" y="0">10</tspan></text>
  </g>
  <g class="st26">
    <text class="st6" transform="translate(356.3 697)"><tspan x="0" y="0">15</tspan></text>
  </g>
  <g class="st25">
    <text class="st6" transform="translate(444.3 697)"><tspan x="0" y="0">20</tspan></text>
  </g>
  <g class="st9">
    <text class="st6" transform="translate(532.3 697)"><tspan x="0" y="0">25</tspan></text>
  </g>
  <g class="st7">
    <text class="st6" transform="translate(620.3 697)"><tspan x="0" y="0">30</tspan></text>
  </g>
  <g class="st13">
    <text class="st6" transform="translate(707.3 697)"><tspan x="0" y="0">35</tspan></text>
  </g>
  <g class="st11">
    <text class="st6" transform="translate(795.3 697)"><tspan x="0" y="0">40</tspan></text>
  </g>
  <g class="st12">
    <text class="st6" transform="translate(883.3 697)"><tspan x="0" y="0">45</tspan></text>
  </g>
  <g class="st10">
    <text class="st5" transform="translate(504.7 724)"><tspan x="0" y="0">Avg. Age</tspan></text>
  </g>
  <g class="st8">
    <text class="st6" transform="translate(15.4 367.5)"><tspan x="0" y="0">Physical Only</tspan></text>
  </g>
  <g class="st18">
    <rect class="st28" x="100" y="20" width="859" height="660"/>
  </g>
  <g class="st19">
    <rect class="st28" x="100" y="20" width="859" height="660"/>
  </g>
  <g class="st20">
    <rect class="st28" x="100" y="20" width="859" height="660"/>
  </g>
  <g class="st16">
    <rect class="st28" x="100" y="20" width="859" height="660"/>
  </g>
  <g class="st15">
    <g>
      <line class="st1" x1="188" y1="678" x2="188" y2="20" vector-effect="none"/>
      <line class="st1" x1="276" y1="678" x2="276" y2="20" vector-effect="none"/>
      <line class="st1" x1="363" y1="678" x2="363" y2="20" vector-effect="none"/>
      <line class="st1" x1="451" y1="678" x2="451" y2="20" vector-effect="none"/>
      <line class="st1" x1="539" y1="678" x2="539" y2="20" vector-effect="none"/>
      <line class="st1" x1="627" y1="678" x2="627" y2="20" vector-effect="none"/>
      <line class="st1" x1="714" y1="678" x2="714" y2="20" vector-effect="none"/>
      <line class="st1" x1="802" y1="678" x2="802" y2="20" vector-effect="none"/>
      <line class="st1" x1="890" y1="678" x2="890" y2="20" vector-effect="none"/>
    </g>
  </g>
  <g class="st17">
    <line class="st4" x1="100" y1="678" x2="100" y2="20" vector-effect="none"/>
  </g>
  <g class="st21">
    <rect class="st29" x="94.9" y="274" width="817" height="186"/>
  </g>
  <g class="st14">
    <g>
      <line class="st3" x1="100" y1="679" x2="958" y2="679" vector-effect="none"/>
      <line class="st3" x1="100" y1="20" x2="100" y2="679" vector-effect="none"/>
    </g>
  </g>
</svg>