<?xml version="1.0" encoding="UTF-8" standalone="no"?>
<svg width="253.471mm" height="194.204mm"
 xmlns="http://www.w3.org/2000/svg" xmlns:xlink="http://www.w3.org/1999/xlink" version="1.1">
<title>Physical Book Education</title>
<desc>Rendered by Tableau</desc>
<defs>
<clipPath id="clipPath1">
<path vector-effect="none" fill-rule="evenodd" d="M0,0 L959,0 L959,735 L0,735 L0,0"/>
</clipPath>
<clipPath id="clipPath2">
<path vector-effect="none" fill-rule="evenodd" d="M0,0 L959,0 L959,735 L0,735 L0,0"/>
</clipPath>
<clipPath id="clipPath3">
<path vector-effect="none" fill-rule="evenodd" d="M0,0 L958,0 L958,734 L0,734 L0,0"/>
</clipPath>
<clipPath id="clipPath4">
<path vector-effect="none" fill-rule="evenodd" d="M0,0 L959,0 L959,735 L0,735 L0,0"/>
</clipPath>
<clipPath id="clipPath5">
<path vector-effect="none" fill-rule="evenodd" d="M0,0 L959,0 L959,735 L0,735 L0,0"/>
</clipPath>
<clipPath id="clipPath6">
<path vector-effect="none" fill-rule="evenodd" d="M0,0 L959,0 L959,735 L0,735 L0,0"/>
</clipPath>
<clipPath id="clipPath7">
<path vector-effect="none" fill-rule="evenodd" d="M0,0 L959,0 L959,735 L0,735 L0,0"/>
</clipPath>
<clipPath id="clipPath8">
<path vector-effect="none" fill-rule="evenodd" d="M0,0 L959,0 L959,735 L0,735 L0,0"/>
</clipPath>
<clipPath id="clipPath9">
<path vector-effect="none" fill-rule="evenodd" d="M0,0 L958,0 L958,734 L0,734 L0,0"/>
</clipPath>
<clipPath id="clipPath10">
<path vector-effect="none" fill-rule="evenodd" d="M0,0 L959,0 L959,735 L0,735 L0,0"/>
</clipPath>
<clipPath id="clipPath11">
<path vector-effect="none" fill-rule="evenodd" d="M0,0 L958,0 L958,734 L0,734 L0,0"/>
</clipPath>
<clipPath id="clipPath12">
<path vector-effect="none" fill-rule="evenodd" d="M0,0 L959,0 L959,735 L0,735 L0,0"/>
</clipPath>
<clipPath id="clipPath13">
<path vector-effect="none" fill-rule="evenodd" d="M0,0 L959,0 L959,735 L0,735 L0,0"/>
</clipPath>
<clipPath id="clipPath14">
<path vector-effect="none" fill-rule="evenodd" d="M0,0 L958,0 L958,734 L0,734 L0,0"/>
</clipPath>
<clipPath id="clipPath15">
<path vector-effect="none" fill-rule="evenodd" d="M0,0 L959,0 L959,735 L0,735 L0,0"/>
</clipPath>
<clipPath id="clipPath16">
<path vector-effect="none" fill-rule="evenodd" d="M0,0 L958,0 L958,734 L0,734 L0,0"/>
</clipPath>
<clipPath id="clipPath17">
<path vector-effect="none" fill-rule="evenodd" d="M0,0 L959,0 L959,735 L0,735 L0,0"/>
</clipPath>
<clipPath id="clipPath18">
<path vector-effect="none" fill-rule="evenodd" d="M0,0 L959,0 L959,735 L0,735 L0,0"/>
</clipPath>
<clipPath id="clipPath19">
<path vector-effect="none" fill-rule="evenodd" d="M0,0 L958,0 L958,734 L0,734 L0,0"/>
</clipPath>
<clipPath id="clipPath20">
<path vector-effect="none" fill-rule="evenodd" d="M0,0 L959,0 L959,735 L0,735 L0,0"/>
</clipPath>
<clipPath id="clipPath21">
<path vector-effect="none" fill-rule="evenodd" d="M0,0 L958,0 L958,734 L0,734 L0,0"/>
</clipPath>
<clipPath id="clipPath22">
<path vector-effect="none" fill-rule="evenodd" d="M0,0 L959,0 L959,735 L0,735 L0,0"/>
</clipPath>
<clipPath id="clipPath23">
<path vector-effect="none" fill-rule="evenodd" d="M0,0 L959,0 L959,735 L0,735 L0,0"/>
</clipPath>
<clipPath id="clipPath24">
<path vector-effect="none" fill-rule="evenodd" d="M0,0 L958,0 L958,734 L0,734 L0,0"/>
</clipPath>
<clipPath id="clipPath25">
<path vector-effect="none" fill-rule="evenodd" d="M0,0 L959,0 L959,735 L0,735 L0,0"/>
</clipPath>
<clipPath id="clipPath26">
<path vector-effect="none" fill-rule="evenodd" d="M0,0 L958,0 L958,734 L0,734 L0,0"/>
</clipPath>
<clipPath id="clipPath27">
<path vector-effect="none" fill-rule="evenodd" d="M0,0 L959,0 L959,735 L0,735 L0,0"/>
</clipPath>
<clipPath id="clipPath28">
<path vector-effect="none" fill-rule="evenodd" d="M0,0 L959,0 L959,735 L0,735 L0,0"/>
</clipPath>
<clipPath id="clipPath29">
<path vector-effect="none" fill-rule="evenodd" d="M0,0 L958,0 L958,734 L0,734 L0,0"/>
</clipPath>
<clipPath id="clipPath30">
<path vector-effect="none" fill-rule="evenodd" d="M0,0 L959,0 L959,735 L0,735 L0,0"/>
</clipPath>
<clipPath id="clipPath31">
<path vector-effect="none" fill-rule="evenodd" d="M0,0 L958,0 L958,734 L0,734 L0,0"/>
</clipPath>
<clipPath id="clipPath32">
<path vector-effect="none" fill-rule="evenodd" d="M0,0 L959,0 L959,735 L0,735 L0,0"/>
</clipPath>
<clipPath id="clipPath33">
<path vector-effect="none" fill-rule="evenodd" d="M0,0 L959,0 L959,735 L0,735 L0,0"/>
</clipPath>
<clipPath id="clipPath34">
<path vector-effect="none" fill-rule="evenodd" d="M0,0 L958,0 L958,734 L0,734 L0,0"/>
</clipPath>
<clipPath id="clipPath35">
<path vector-effect="none" fill-rule="evenodd" d="M0,0 L959,0 L959,735 L0,735 L0,0"/>
</clipPath>
<clipPath id="clipPath36">
<path vector-effect="none" fill-rule="evenodd" d="M0,0 L958,0 L958,734 L0,734 L0,0"/>
</clipPath>
<clipPath id="clipPath37">
<path vector-effect="none" fill-rule="evenodd" d="M0,0 L959,0 L959,735 L0,735 L0,0"/>
</clipPath>
</defs>
<g fill="none" stroke="black" stroke-width="1" fill-rule="evenodd" stroke-linecap="square" stroke-linejoin="bevel" >

<g fill="#ffffff" fill-opacity="1" stroke="none" transform="matrix(1,0,0,1,0,0)"
font-family="Benton Sans Book" font-size="16" font-weight="400" font-style="normal" 
>
<rect x="0" y="0" width="958" height="734"/>
</g>

<g fill="#ffffff" fill-opacity="1" stroke="none" transform="matrix(1,0,0,1,0,0)"
font-family="Benton Sans Book" font-size="16" font-weight="400" font-style="normal" 
>
<rect x="0" y="0" width="958" height="734"/>
</g>

<g clip-path="url(#clipPath1)"><g fill="none" stroke="#000000" stroke-opacity="1" stroke-width="1" stroke-linecap="square" stroke-linejoin="bevel" transform="matrix(1,0,0,1,0,0)"
font-family="Benton Sans Book" font-size="16" font-weight="400" font-style="normal" 
>
</g>
</g>

<g clip-path="url(#clipPath2)"><g fill="none" stroke="#000000" stroke-opacity="1" stroke-width="1" stroke-linecap="square" stroke-linejoin="bevel" transform="matrix(1,0,0,1,0,0)"
font-family="Benton Sans Book" font-size="16" font-weight="400" font-style="normal" 
>
</g>
</g>

<g clip-path="url(#clipPath2)"><g fill="#ffffff" fill-opacity="1" stroke="none" transform="matrix(1,0,0,1,0,0)"
font-family="Benton Sans Book" font-size="16" font-weight="400" font-style="normal" 
>
<rect x="0" y="0" width="959" height="735"/>
</g>
</g>

<g clip-path="url(#clipPath2)"><g fill="#ffffff" fill-opacity="1" stroke="none" transform="matrix(1,0,0,1,0,0)"
font-family="Benton Sans Book" font-size="16" font-weight="400" font-style="normal" 
>
<rect x="0" y="0" width="959" height="735"/>
</g>
</g>

<g clip-path="url(#clipPath3)"><g fill="none" stroke="#000000" stroke-opacity="1" stroke-width="1" stroke-linecap="square" stroke-linejoin="bevel" transform="matrix(1,0,0,1,0,0)"
font-family="Benton Sans Book" font-size="16" font-weight="400" font-style="normal" 
>
</g>
</g>

<g clip-path="url(#clipPath3)"><g fill="#ffffff" fill-opacity="1" stroke="none" transform="matrix(1,0,0,1,0,0)"
font-family="Benton Sans Book" font-size="16" font-weight="400" font-style="normal" 
>
<rect x="0" y="0" width="959" height="735"/>
</g>
</g>

<g clip-path="url(#clipPath4)"><g fill="none" stroke="#000000" stroke-opacity="1" stroke-width="1" stroke-linecap="square" stroke-linejoin="bevel" transform="matrix(1,0,0,1,0,0)"
font-family="Benton Sans Book" font-size="16" font-weight="400" font-style="normal" 
>
</g>
</g>

<g clip-path="url(#clipPath5)"><g fill="none" stroke="#000000" stroke-opacity="1" stroke-width="1" stroke-linecap="square" stroke-linejoin="bevel" transform="matrix(1,0,0,1,0,0)"
font-family="Benton Sans Book" font-size="16" font-weight="400" font-style="normal" 
>
</g>
</g>

<g clip-path="url(#clipPath6)"><g fill="none" stroke="#000000" stroke-opacity="1" stroke-width="1" stroke-linecap="square" stroke-linejoin="bevel" transform="matrix(1,0,0,1,0,0)"
font-family="Benton Sans Book" font-size="16" font-weight="400" font-style="normal" 
>
</g>
</g>

<g clip-path="url(#clipPath7)"><g fill="none" stroke="#000000" stroke-opacity="1" stroke-width="1" stroke-linecap="square" stroke-linejoin="bevel" transform="matrix(1,0,0,1,0,0)"
font-family="Benton Sans Book" font-size="16" font-weight="400" font-style="normal" 
>
</g>
</g>

<g clip-path="url(#clipPath7)"><g fill="#ffffff" fill-opacity="1" stroke="none" transform="matrix(1,0,0,1,0,0)"
font-family="Benton Sans Book" font-size="16" font-weight="400" font-style="normal" 
>
<rect x="0" y="0" width="959" height="735"/>
</g>
</g>

<g clip-path="url(#clipPath8)"><g fill="none" stroke="#000000" stroke-opacity="1" stroke-width="1" stroke-linecap="square" stroke-linejoin="bevel" transform="matrix(1,0,0,1,0,0)"
font-family="Benton Sans Book" font-size="16" font-weight="400" font-style="normal" 
>
</g>
</g>

<g clip-path="url(#clipPath9)"><g fill="none" stroke="#000000" stroke-opacity="1" stroke-width="1" stroke-linecap="square" stroke-linejoin="bevel" transform="matrix(1,0,0,1,0,0)"
font-family="Benton Sans Book" font-size="16" font-weight="400" font-style="normal" 
>
</g>
</g>

<g clip-path="url(#clipPath10)"><g fill="none" stroke="#000000" stroke-opacity="1" stroke-width="1" stroke-linecap="square" stroke-linejoin="bevel" transform="matrix(1,0,0,1,0,0)"
font-family="Benton Sans Book" font-size="16" font-weight="400" font-style="normal" 
>
</g>
</g>

<g clip-path="url(#clipPath11)"><g fill="none" stroke="#000000" stroke-opacity="1" stroke-width="1" stroke-linecap="square" stroke-linejoin="bevel" transform="matrix(1,0,0,1,0,0)"
font-family="Benton Sans Book" font-size="16" font-weight="400" font-style="normal" 
>
</g>
</g>

<g clip-path="url(#clipPath12)"><g fill="none" stroke="#000000" stroke-opacity="1" stroke-width="1" stroke-linecap="square" stroke-linejoin="bevel" transform="matrix(1,0,0,1,0,0)"
font-family="Benton Sans Book" font-size="16" font-weight="400" font-style="normal" 
>
</g>
</g>

<g clip-path="url(#clipPath13)"><g fill="none" stroke="#000000" stroke-opacity="1" stroke-width="1" stroke-linecap="square" stroke-linejoin="bevel" transform="matrix(1,0,0,1,0,0)"
font-family="Benton Sans Book" font-size="16" font-weight="400" font-style="normal" 
>
</g>
</g>

<g clip-path="url(#clipPath14)"><g fill="none" stroke="#000000" stroke-opacity="1" stroke-width="1" stroke-linecap="square" stroke-linejoin="bevel" transform="matrix(1,0,0,1,0,0)"
font-family="Benton Sans Book" font-size="16" font-weight="400" font-style="normal" 
>
</g>
</g>

<g clip-path="url(#clipPath14)"><g fill="#ff9da7" fill-opacity="1" stroke="none" transform="matrix(1,0,0,1,0,0)"
font-family="Benton Sans Book" font-size="16" font-weight="400" font-style="normal" 
>
<circle cx="746.628" cy="362.794" r="46.2399"/>
</g>
</g>

<g clip-path="url(#clipPath14)"><g fill="#b07aa1" fill-opacity="1" stroke="none" transform="matrix(1,0,0,1,0,0)"
font-family="Benton Sans Book" font-size="16" font-weight="400" font-style="normal" 
>
<circle cx="695.595" cy="161.715" r="161.215"/>
</g>
</g>

<g clip-path="url(#clipPath14)"><g fill="#edc948" fill-opacity="1" stroke="none" transform="matrix(1,0,0,1,0,0)"
font-family="Benton Sans Book" font-size="16" font-weight="400" font-style="normal" 
>
<circle cx="386.731" cy="165.981" r="147.678"/>
</g>
</g>

<g clip-path="url(#clipPath14)"><g fill="#59a14f" fill-opacity="1" stroke="none" transform="matrix(1,0,0,1,0,0)"
font-family="Benton Sans Book" font-size="16" font-weight="400" font-style="normal" 
>
<circle cx="420.833" cy="341.974" r="31.5879"/>
</g>
</g>

<g clip-path="url(#clipPath14)"><g fill="#e15759" fill-opacity="1" stroke="none" transform="matrix(1,0,0,1,0,0)"
font-family="Benton Sans Book" font-size="16" font-weight="400" font-style="normal" 
>
<circle cx="422.744" cy="640.239" r="94.2609"/>
</g>
</g>

<g clip-path="url(#clipPath14)"><g fill="#f28e2b" fill-opacity="1" stroke="none" transform="matrix(1,0,0,1,0,0)"
font-family="Benton Sans Book" font-size="16" font-weight="400" font-style="normal" 
>
<circle cx="569.307" cy="445.539" r="149.438"/>
</g>
</g>

<g clip-path="url(#clipPath14)"><g fill="#4e79a7" fill-opacity="1" stroke="none" transform="matrix(1,0,0,1,0,0)"
font-family="Benton Sans Book" font-size="16" font-weight="400" font-style="normal" 
>
<circle cx="261.03" cy="445.539" r="158.839"/>
</g>
</g>

<g clip-path="url(#clipPath15)"><g fill="#4e79a7" fill-opacity="1" stroke="none" transform="matrix(1,0,0,1,0,0)"
font-family="Benton Sans Book" font-size="16" font-weight="400" font-style="normal" 
>
</g>
</g>

<g clip-path="url(#clipPath16)"><g fill="#4e79a7" fill-opacity="1" stroke="none" transform="matrix(1,0,0,1,0,0)"
font-family="Benton Sans Book" font-size="16" font-weight="400" font-style="normal" 
>
</g>
</g>

<g clip-path="url(#clipPath16)"><g fill="none" stroke="#000000" stroke-opacity="1" stroke-width="1" stroke-linecap="square" stroke-linejoin="bevel" transform="matrix(1,0,0,1,0,0)"
font-family="Arial" font-size="12" font-weight="400" font-style="normal" 
>
<text fill="#000000" fill-opacity="1" stroke="none" xml:space="preserve" x="731" y="367" font-family="Arial" font-size="12" font-weight="400" font-style="normal" 
 >Trade</text>
</g>
</g>

<g clip-path="url(#clipPath16)"><g fill="none" stroke="#ffffff" stroke-opacity="1" stroke-width="1" stroke-linecap="square" stroke-linejoin="bevel" transform="matrix(1,0,0,1,0,0)"
font-family="Arial" font-size="12" font-weight="400" font-style="normal" 
>
<text fill="#ffffff" fill-opacity="1" stroke="none" xml:space="preserve" x="658" y="166" font-family="Arial" font-size="12" font-weight="400" font-style="normal" 
 >Some College</text>
</g>
</g>

<g clip-path="url(#clipPath16)"><g fill="none" stroke="#000000" stroke-opacity="1" stroke-width="1" stroke-linecap="square" stroke-linejoin="bevel" transform="matrix(1,0,0,1,0,0)"
font-family="Arial" font-size="12" font-weight="400" font-style="normal" 
>
<text fill="#000000" fill-opacity="1" stroke="none" xml:space="preserve" x="315" y="170" font-family="Arial" font-size="12" font-weight="400" font-style="normal" 
 >Post-Graduate Education</text>
</g>
</g>

<g clip-path="url(#clipPath16)"><g fill="none" stroke="#ffffff" stroke-opacity="1" stroke-width="1" stroke-linecap="square" stroke-linejoin="bevel" transform="matrix(1,0,0,1,0,0)"
font-family="Arial" font-size="12" font-weight="400" font-style="normal" 
>
<text fill="#ffffff" fill-opacity="1" stroke="none" xml:space="preserve" x="406" y="346" font-family="Arial" font-size="12" font-weight="400" font-style="normal" 
 >None</text>
</g>
</g>

<g clip-path="url(#clipPath16)"><g fill="none" stroke="#ffffff" stroke-opacity="1" stroke-width="1" stroke-linecap="square" stroke-linejoin="bevel" transform="matrix(1,0,0,1,0,0)"
font-family="Arial" font-size="12" font-weight="400" font-style="normal" 
>
<text fill="#ffffff" fill-opacity="1" stroke="none" xml:space="preserve" x="358" y="645" font-family="Arial" font-size="12" font-weight="400" font-style="normal" 
 >High school incomplete</text>
</g>
</g>

<g clip-path="url(#clipPath16)"><g fill="none" stroke="#000000" stroke-opacity="1" stroke-width="1" stroke-linecap="square" stroke-linejoin="bevel" transform="matrix(1,0,0,1,0,0)"
font-family="Arial" font-size="12" font-weight="400" font-style="normal" 
>
<text fill="#000000" fill-opacity="1" stroke="none" xml:space="preserve" x="510" y="450" font-family="Arial" font-size="12" font-weight="400" font-style="normal" 
 >High school graduate</text>
</g>
</g>

<g clip-path="url(#clipPath16)"><g fill="none" stroke="#ffffff" stroke-opacity="1" stroke-width="1" stroke-linecap="square" stroke-linejoin="bevel" transform="matrix(1,0,0,1,0,0)"
font-family="Arial" font-size="12" font-weight="400" font-style="normal" 
>
<text fill="#ffffff" fill-opacity="1" stroke="none" xml:space="preserve" x="214" y="450" font-family="Arial" font-size="12" font-weight="400" font-style="normal" 
 >College graduate</text>
</g>
</g>

<g clip-path="url(#clipPath17)"><g fill="none" stroke="#ffffff" stroke-opacity="1" stroke-width="1" stroke-linecap="square" stroke-linejoin="bevel" transform="matrix(1,0,0,1,0,0)"
font-family="Arial" font-size="12" font-weight="400" font-style="normal" 
>
</g>
</g>

<g clip-path="url(#clipPath18)"><g fill="none" stroke="#ffffff" stroke-opacity="1" stroke-width="1" stroke-linecap="square" stroke-linejoin="bevel" transform="matrix(1,0,0,1,0,0)"
font-family="Arial" font-size="12" font-weight="400" font-style="normal" 
>
</g>
</g>

<g clip-path="url(#clipPath19)"><g fill="none" stroke="#ffffff" stroke-opacity="1" stroke-width="1" stroke-linecap="square" stroke-linejoin="bevel" transform="matrix(1,0,0,1,0,0)"
font-family="Arial" font-size="12" font-weight="400" font-style="normal" 
>
</g>
</g>

<g clip-path="url(#clipPath20)"><g fill="none" stroke="#ffffff" stroke-opacity="1" stroke-width="1" stroke-linecap="square" stroke-linejoin="bevel" transform="matrix(1,0,0,1,0,0)"
font-family="Arial" font-size="12" font-weight="400" font-style="normal" 
>
</g>
</g>

<g clip-path="url(#clipPath21)"><g fill="none" stroke="#ffffff" stroke-opacity="1" stroke-width="1" stroke-linecap="square" stroke-linejoin="bevel" transform="matrix(1,0,0,1,0,0)"
font-family="Arial" font-size="12" font-weight="400" font-style="normal" 
>
</g>
</g>

<g clip-path="url(#clipPath22)"><g fill="none" stroke="#ffffff" stroke-opacity="1" stroke-width="1" stroke-linecap="square" stroke-linejoin="bevel" transform="matrix(1,0,0,1,0,0)"
font-family="Arial" font-size="12" font-weight="400" font-style="normal" 
>
</g>
</g>

<g clip-path="url(#clipPath23)"><g fill="none" stroke="#ffffff" stroke-opacity="1" stroke-width="1" stroke-linecap="square" stroke-linejoin="bevel" transform="matrix(1,0,0,1,0,0)"
font-family="Arial" font-size="12" font-weight="400" font-style="normal" 
>
</g>
</g>

<g clip-path="url(#clipPath24)"><g fill="none" stroke="#ffffff" stroke-opacity="1" stroke-width="1" stroke-linecap="square" stroke-linejoin="bevel" transform="matrix(1,0,0,1,0,0)"
font-family="Arial" font-size="12" font-weight="400" font-style="normal" 
>
</g>
</g>

<g clip-path="url(#clipPath25)"><g fill="none" stroke="#ffffff" stroke-opacity="1" stroke-width="1" stroke-linecap="square" stroke-linejoin="bevel" transform="matrix(1,0,0,1,0,0)"
font-family="Arial" font-size="12" font-weight="400" font-style="normal" 
>
</g>
</g>

<g clip-path="url(#clipPath26)"><g fill="none" stroke="#ffffff" stroke-opacity="1" stroke-width="1" stroke-linecap="square" stroke-linejoin="bevel" transform="matrix(1,0,0,1,0,0)"
font-family="Arial" font-size="12" font-weight="400" font-style="normal" 
>
</g>
</g>

<g clip-path="url(#clipPath27)"><g fill="none" stroke="#ffffff" stroke-opacity="1" stroke-width="1" stroke-linecap="square" stroke-linejoin="bevel" transform="matrix(1,0,0,1,0,0)"
font-family="Arial" font-size="12" font-weight="400" font-style="normal" 
>
</g>
</g>

<g clip-path="url(#clipPath28)"><g fill="none" stroke="#ffffff" stroke-opacity="1" stroke-width="1" stroke-linecap="square" stroke-linejoin="bevel" transform="matrix(1,0,0,1,0,0)"
font-family="Arial" font-size="12" font-weight="400" font-style="normal" 
>
</g>
</g>

<g clip-path="url(#clipPath29)"><g fill="none" stroke="#ffffff" stroke-opacity="1" stroke-width="1" stroke-linecap="square" stroke-linejoin="bevel" transform="matrix(1,0,0,1,0,0)"
font-family="Arial" font-size="12" font-weight="400" font-style="normal" 
>
</g>
</g>

<g clip-path="url(#clipPath30)"><g fill="none" stroke="#ffffff" stroke-opacity="1" stroke-width="1" stroke-linecap="square" stroke-linejoin="bevel" transform="matrix(1,0,0,1,0,0)"
font-family="Arial" font-size="12" font-weight="400" font-style="normal" 
>
</g>
</g>

<g clip-path="url(#clipPath31)"><g fill="none" stroke="#ffffff" stroke-opacity="1" stroke-width="1" stroke-linecap="square" stroke-linejoin="bevel" transform="matrix(1,0,0,1,0,0)"
font-family="Arial" font-size="12" font-weight="400" font-style="normal" 
>
</g>
</g>

<g clip-path="url(#clipPath32)"><g fill="none" stroke="#ffffff" stroke-opacity="1" stroke-width="1" stroke-linecap="square" stroke-linejoin="bevel" transform="matrix(1,0,0,1,0,0)"
font-family="Arial" font-size="12" font-weight="400" font-style="normal" 
>
</g>
</g>

<g clip-path="url(#clipPath33)"><g fill="none" stroke="#ffffff" stroke-opacity="1" stroke-width="1" stroke-linecap="square" stroke-linejoin="bevel" transform="matrix(1,0,0,1,0,0)"
font-family="Arial" font-size="12" font-weight="400" font-style="normal" 
>
</g>
</g>

<g clip-path="url(#clipPath34)"><g fill="none" stroke="#ffffff" stroke-opacity="1" stroke-width="1" stroke-linecap="square" stroke-linejoin="bevel" transform="matrix(1,0,0,1,0,0)"
font-family="Arial" font-size="12" font-weight="400" font-style="normal" 
>
</g>
</g>

<g clip-path="url(#clipPath35)"><g fill="none" stroke="#ffffff" stroke-opacity="1" stroke-width="1" stroke-linecap="square" stroke-linejoin="bevel" transform="matrix(1,0,0,1,0,0)"
font-family="Arial" font-size="12" font-weight="400" font-style="normal" 
>
</g>
</g>

<g clip-path="url(#clipPath36)"><g fill="none" stroke="#ffffff" stroke-opacity="1" stroke-width="1" stroke-linecap="square" stroke-linejoin="bevel" transform="matrix(1,0,0,1,0,0)"
font-family="Arial" font-size="12" font-weight="400" font-style="normal" 
>
</g>
</g>

<g clip-path="url(#clipPath37)"><g fill="none" stroke="#ffffff" stroke-opacity="1" stroke-width="1" stroke-linecap="square" stroke-linejoin="bevel" transform="matrix(1,0,0,1,0,0)"
font-family="Arial" font-size="12" font-weight="400" font-style="normal" 
>
</g>
</g>

<g fill="none" stroke="#ffffff" stroke-opacity="1" stroke-width="1" stroke-linecap="square" stroke-linejoin="bevel" transform="matrix(1,0,0,1,0,0)"
font-family="Arial" font-size="12" font-weight="400" font-style="normal" 
>
</g>
</g>
</svg>
