<?xml version="1.0" encoding="UTF-8" standalone="no"?>
<svg width="253.471mm" height="164.571mm"
 xmlns="http://www.w3.org/2000/svg" xmlns:xlink="http://www.w3.org/1999/xlink" version="1.1">
<title>Reddit Preferences</title>
<desc>Rendered by Tableau</desc>
<defs>
<clipPath id="clipPath1">
<path vector-effect="none" fill-rule="evenodd" d="M0,0 L959,0 L959,623 L0,623 L0,0"/>
</clipPath>
<clipPath id="clipPath2">
<path vector-effect="none" fill-rule="evenodd" d="M0,0 L959,0 L959,623 L0,623 L0,0"/>
</clipPath>
<clipPath id="clipPath3">
<path vector-effect="none" fill-rule="evenodd" d="M0,0 L958,0 L958,622 L0,622 L0,0"/>
</clipPath>
<clipPath id="clipPath4">
<path vector-effect="none" fill-rule="evenodd" d="M0,0 L959,0 L959,623 L0,623 L0,0"/>
</clipPath>
<clipPath id="clipPath5">
<path vector-effect="none" fill-rule="evenodd" d="M0,0 L959,0 L959,623 L0,623 L0,0"/>
</clipPath>
<clipPath id="clipPath6">
<path vector-effect="none" fill-rule="evenodd" d="M0,0 L959,0 L959,623 L0,623 L0,0"/>
</clipPath>
<clipPath id="clipPath7">
<path vector-effect="none" fill-rule="evenodd" d="M0,0 L959,0 L959,623 L0,623 L0,0"/>
</clipPath>
<clipPath id="clipPath8">
<path vector-effect="none" fill-rule="evenodd" d="M0,0 L959,0 L959,623 L0,623 L0,0"/>
</clipPath>
<clipPath id="clipPath9">
<path vector-effect="none" fill-rule="evenodd" d="M0,0 L958,0 L958,622 L0,622 L0,0"/>
</clipPath>
<clipPath id="clipPath10">
<path vector-effect="none" fill-rule="evenodd" d="M0,0 L959,0 L959,623 L0,623 L0,0"/>
</clipPath>
<clipPath id="clipPath11">
<path vector-effect="none" fill-rule="evenodd" d="M0,0 L959,0 L959,623 L0,623 L0,0"/>
</clipPath>
<clipPath id="clipPath12">
<path vector-effect="none" fill-rule="evenodd" d="M0,0 L958,0 L958,622 L0,622 L0,0"/>
</clipPath>
<clipPath id="clipPath13">
<path vector-effect="none" fill-rule="evenodd" d="M0,0 L959,0 L959,623 L0,623 L0,0"/>
</clipPath>
<clipPath id="clipPath14">
<path vector-effect="none" fill-rule="evenodd" d="M0,0 L959,0 L959,623 L0,623 L0,0"/>
</clipPath>
<clipPath id="clipPath15">
<path vector-effect="none" fill-rule="evenodd" d="M0,0 L958,0 L958,622 L0,622 L0,0"/>
</clipPath>
<clipPath id="clipPath16">
<path vector-effect="none" fill-rule="evenodd" d="M0,0 L959,0 L959,623 L0,623 L0,0"/>
</clipPath>
<clipPath id="clipPath17">
<path vector-effect="none" fill-rule="evenodd" d="M0,0 L959,0 L959,623 L0,623 L0,0"/>
</clipPath>
<clipPath id="clipPath18">
<path vector-effect="none" fill-rule="evenodd" d="M0,0 L958,0 L958,622 L0,622 L0,0"/>
</clipPath>
<clipPath id="clipPath19">
<path vector-effect="none" fill-rule="evenodd" d="M0,0 L959,0 L959,623 L0,623 L0,0"/>
</clipPath>
<clipPath id="clipPath20">
<path vector-effect="none" fill-rule="evenodd" d="M0,0 L959,0 L959,623 L0,623 L0,0"/>
</clipPath>
<clipPath id="clipPath21">
<path vector-effect="none" fill-rule="evenodd" d="M0,0 L958,0 L958,622 L0,622 L0,0"/>
</clipPath>
<clipPath id="clipPath22">
<path vector-effect="none" fill-rule="evenodd" d="M0,0 L959,0 L959,623 L0,623 L0,0"/>
</clipPath>
<clipPath id="clipPath23">
<path vector-effect="none" fill-rule="evenodd" d="M0,0 L959,0 L959,623 L0,623 L0,0"/>
</clipPath>
<clipPath id="clipPath24">
<path vector-effect="none" fill-rule="evenodd" d="M0,0 L958,0 L958,622 L0,622 L0,0"/>
</clipPath>
<clipPath id="clipPath25">
<path vector-effect="none" fill-rule="evenodd" d="M0,0 L959,0 L959,623 L0,623 L0,0"/>
</clipPath>
</defs>
<g fill="none" stroke="black" stroke-width="1" fill-rule="evenodd" stroke-linecap="square" stroke-linejoin="bevel" >

<g fill="#ffffff" fill-opacity="1" stroke="none" transform="matrix(1,0,0,1,0,0)"
font-family="Benton Sans Book" font-size="16" font-weight="400" font-style="normal" 
>
<rect x="0" y="0" width="958" height="622"/>
</g>

<g fill="#ffffff" fill-opacity="1" stroke="none" transform="matrix(1,0,0,1,0,0)"
font-family="Benton Sans Book" font-size="16" font-weight="400" font-style="normal" 
>
<rect x="0" y="0" width="958" height="622"/>
</g>

<g clip-path="url(#clipPath1)"><g fill="none" stroke="#000000" stroke-opacity="1" stroke-width="1" stroke-linecap="square" stroke-linejoin="bevel" transform="matrix(1,0,0,1,0,0)"
font-family="Benton Sans Book" font-size="16" font-weight="400" font-style="normal" 
>
</g>
</g>

<g clip-path="url(#clipPath2)"><g fill="none" stroke="#000000" stroke-opacity="1" stroke-width="1" stroke-linecap="square" stroke-linejoin="bevel" transform="matrix(1,0,0,1,0,0)"
font-family="Benton Sans Book" font-size="16" font-weight="400" font-style="normal" 
>
</g>
</g>

<g clip-path="url(#clipPath2)"><g fill="#ffffff" fill-opacity="1" stroke="none" transform="matrix(1,0,0,1,0,0)"
font-family="Benton Sans Book" font-size="16" font-weight="400" font-style="normal" 
>
<rect x="0" y="0" width="959" height="623"/>
</g>
</g>

<g clip-path="url(#clipPath2)"><g fill="#ffffff" fill-opacity="1" stroke="none" transform="matrix(1,0,0,1,0,0)"
font-family="Benton Sans Book" font-size="16" font-weight="400" font-style="normal" 
>
<rect x="0" y="0" width="959" height="623"/>
</g>
</g>

<g clip-path="url(#clipPath3)"><g fill="none" stroke="#000000" stroke-opacity="1" stroke-width="1" stroke-linecap="square" stroke-linejoin="bevel" transform="matrix(1,0,0,1,0,0)"
font-family="Benton Sans Book" font-size="16" font-weight="400" font-style="normal" 
>
</g>
</g>

<g clip-path="url(#clipPath3)"><g fill="#ffffff" fill-opacity="1" stroke="none" transform="matrix(1,0,0,1,0,0)"
font-family="Benton Sans Book" font-size="16" font-weight="400" font-style="normal" 
>
<rect x="0" y="0" width="959" height="623"/>
</g>
</g>

<g clip-path="url(#clipPath4)"><g fill="none" stroke="#000000" stroke-opacity="1" stroke-width="1" stroke-linecap="square" stroke-linejoin="bevel" transform="matrix(1,0,0,1,0,0)"
font-family="Benton Sans Book" font-size="16" font-weight="400" font-style="normal" 
>
</g>
</g>

<g clip-path="url(#clipPath5)"><g fill="none" stroke="#000000" stroke-opacity="1" stroke-width="1" stroke-linecap="square" stroke-linejoin="bevel" transform="matrix(1,0,0,1,0,0)"
font-family="Benton Sans Book" font-size="16" font-weight="400" font-style="normal" 
>
</g>
</g>

<g clip-path="url(#clipPath6)"><g fill="none" stroke="#000000" stroke-opacity="1" stroke-width="1" stroke-linecap="square" stroke-linejoin="bevel" transform="matrix(1,0,0,1,0,0)"
font-family="Benton Sans Book" font-size="16" font-weight="400" font-style="normal" 
>
</g>
</g>

<g clip-path="url(#clipPath7)"><g fill="none" stroke="#000000" stroke-opacity="1" stroke-width="1" stroke-linecap="square" stroke-linejoin="bevel" transform="matrix(1,0,0,1,0,0)"
font-family="Benton Sans Book" font-size="16" font-weight="400" font-style="normal" 
>
</g>
</g>

<g clip-path="url(#clipPath7)"><g fill="#ffffff" fill-opacity="1" stroke="none" transform="matrix(1,0,0,1,0,0)"
font-family="Benton Sans Book" font-size="16" font-weight="400" font-style="normal" 
>
<rect x="0" y="0" width="959" height="623"/>
</g>
</g>

<g clip-path="url(#clipPath8)"><g fill="none" stroke="#000000" stroke-opacity="1" stroke-width="1" stroke-linecap="square" stroke-linejoin="bevel" transform="matrix(1,0,0,1,0,0)"
font-family="Benton Sans Book" font-size="16" font-weight="400" font-style="normal" 
>
</g>
</g>

<g clip-path="url(#clipPath9)"><g fill="none" stroke="#000000" stroke-opacity="1" stroke-width="1" stroke-linecap="square" stroke-linejoin="bevel" transform="matrix(1,0,0,1,0,0)"
font-family="Benton Sans Book" font-size="16" font-weight="400" font-style="normal" 
>
</g>
</g>

<g clip-path="url(#clipPath10)"><g fill="none" stroke="#000000" stroke-opacity="1" stroke-width="1" stroke-linecap="square" stroke-linejoin="bevel" transform="matrix(1,0,0,1,0,0)"
font-family="Benton Sans Book" font-size="16" font-weight="400" font-style="normal" 
>
</g>
</g>

<g clip-path="url(#clipPath11)"><g fill="none" stroke="#000000" stroke-opacity="1" stroke-width="1" stroke-linecap="square" stroke-linejoin="bevel" transform="matrix(1,0,0,1,0,0)"
font-family="Benton Sans Book" font-size="16" font-weight="400" font-style="normal" 
>
</g>
</g>

<g clip-path="url(#clipPath12)"><g fill="none" stroke="#000000" stroke-opacity="1" stroke-width="1" stroke-linecap="square" stroke-linejoin="bevel" transform="matrix(1,0,0,1,0,0)"
font-family="Benton Sans Book" font-size="16" font-weight="400" font-style="normal" 
>
</g>
</g>

<g clip-path="url(#clipPath12)"><g fill="#f1ce63" fill-opacity="1" stroke="none" transform="matrix(1,0,0,1,0,0)"
font-family="Benton Sans Book" font-size="16" font-weight="400" font-style="normal" 
>
<path vector-effect="none" fill-rule="evenodd" d="M479,311 L479,155.5 C523.282,155.5 563.241,174.01 591.562,203.715 L479,311"/>
</g>
</g>

<g clip-path="url(#clipPath12)"><g fill="#e15759" fill-opacity="1" stroke="none" transform="matrix(1,0,0,1,0,0)"
font-family="Benton Sans Book" font-size="16" font-weight="400" font-style="normal" 
>
<path vector-effect="none" fill-rule="evenodd" d="M479,311 L591.562,203.715 C618.166,231.619 634.5,269.402 634.5,311 C634.5,334.202 629.418,356.218 620.315,375.977 L479,311"/>
</g>
</g>

<g clip-path="url(#clipPath12)"><g fill="#f28e2b" fill-opacity="1" stroke="none" transform="matrix(1,0,0,1,0,0)"
font-family="Benton Sans Book" font-size="16" font-weight="400" font-style="normal" 
>
<path vector-effect="none" fill-rule="evenodd" d="M479,311 L620.315,375.977 C595.695,429.417 541.678,466.5 479,466.5 C393.12,466.5 323.5,396.88 323.5,311 C323.5,225.12 393.12,155.5 479,155.5 L479,311"/>
</g>
</g>

<g clip-path="url(#clipPath13)"><g fill="#f28e2b" fill-opacity="1" stroke="none" transform="matrix(1,0,0,1,0,0)"
font-family="Benton Sans Book" font-size="16" font-weight="400" font-style="normal" 
>
</g>
</g>

<g clip-path="url(#clipPath14)"><g fill="#f28e2b" fill-opacity="1" stroke="none" transform="matrix(1,0,0,1,0,0)"
font-family="Benton Sans Book" font-size="16" font-weight="400" font-style="normal" 
>
</g>
</g>

<g clip-path="url(#clipPath15)"><g fill="#f28e2b" fill-opacity="1" stroke="none" transform="matrix(1,0,0,1,0,0)"
font-family="Benton Sans Book" font-size="16" font-weight="400" font-style="normal" 
>
</g>
</g>

<g clip-path="url(#clipPath16)"><g fill="#f28e2b" fill-opacity="1" stroke="none" transform="matrix(1,0,0,1,0,0)"
font-family="Benton Sans Book" font-size="16" font-weight="400" font-style="normal" 
>
</g>
</g>

<g clip-path="url(#clipPath17)"><g fill="#f28e2b" fill-opacity="1" stroke="none" transform="matrix(1,0,0,1,0,0)"
font-family="Benton Sans Book" font-size="16" font-weight="400" font-style="normal" 
>
</g>
</g>

<g clip-path="url(#clipPath18)"><g fill="#f28e2b" fill-opacity="1" stroke="none" transform="matrix(1,0,0,1,0,0)"
font-family="Benton Sans Book" font-size="16" font-weight="400" font-style="normal" 
>
</g>
</g>

<g clip-path="url(#clipPath19)"><g fill="#f28e2b" fill-opacity="1" stroke="none" transform="matrix(1,0,0,1,0,0)"
font-family="Benton Sans Book" font-size="16" font-weight="400" font-style="normal" 
>
</g>
</g>

<g clip-path="url(#clipPath20)"><g fill="#f28e2b" fill-opacity="1" stroke="none" transform="matrix(1,0,0,1,0,0)"
font-family="Benton Sans Book" font-size="16" font-weight="400" font-style="normal" 
>
</g>
</g>

<g clip-path="url(#clipPath21)"><g fill="#f28e2b" fill-opacity="1" stroke="none" transform="matrix(1,0,0,1,0,0)"
font-family="Benton Sans Book" font-size="16" font-weight="400" font-style="normal" 
>
</g>
</g>

<g clip-path="url(#clipPath22)"><g fill="#f28e2b" fill-opacity="1" stroke="none" transform="matrix(1,0,0,1,0,0)"
font-family="Benton Sans Book" font-size="16" font-weight="400" font-style="normal" 
>
</g>
</g>

<g clip-path="url(#clipPath23)"><g fill="#f28e2b" fill-opacity="1" stroke="none" transform="matrix(1,0,0,1,0,0)"
font-family="Benton Sans Book" font-size="16" font-weight="400" font-style="normal" 
>
</g>
</g>

<g clip-path="url(#clipPath24)"><g fill="#f28e2b" fill-opacity="1" stroke="none" transform="matrix(1,0,0,1,0,0)"
font-family="Benton Sans Book" font-size="16" font-weight="400" font-style="normal" 
>
</g>
</g>

<g clip-path="url(#clipPath25)"><g fill="#f28e2b" fill-opacity="1" stroke="none" transform="matrix(1,0,0,1,0,0)"
font-family="Benton Sans Book" font-size="16" font-weight="400" font-style="normal" 
>
</g>
</g>

<g fill="#f28e2b" fill-opacity="1" stroke="none" transform="matrix(1,0,0,1,0,0)"
font-family="Benton Sans Book" font-size="16" font-weight="400" font-style="normal" 
>
</g>
</g>
</svg>
